<svg id="Camada_1" data-name="Camada 1" xmlns="http://www.w3.org/2000/svg" viewBox="0 0 108 177.6"><defs><style>.cls-1{fill:#96b404;}.cls-2{fill:#aebd64;fill-rule:evenodd;}</style></defs><g id="Camada_1-2" data-name="Camada_1"><rect class="cls-1" width="108" height="177.6"/><path id="bug-icon.svg" class="cls-2" d="M62.35,18.29a.11.11,0,0,1,.16,0L66,20.73a.12.12,0,0,1,0,.16l-4.91,7a28.88,28.88,0,0,1,4,1.59s-4,6.83-10.71,6.83S42.92,30,42.92,30a24.41,24.41,0,0,1,4.22-2l-5.39-6.42a.11.11,0,0,1,0-.16l3.3-2.77a.12.12,0,0,1,.16,0l6.82,8.13a17.37,17.37,0,0,1,1.78-.1,18.15,18.15,0,0,1,2.56.18Zm1.34,18.36A33.73,33.73,0,0,0,68.21,32s7,5.51,7,17.19-12,18.72-12,18.72S57.4,62.12,56,54.77s2.08-15.52,2.08-15.52A29.4,29.4,0,0,0,63.69,36.65Zm-19.38,0A33.73,33.73,0,0,1,39.79,32s-6.95,5.51-6.95,17.19,12,18.72,12,18.72S50.6,62.12,52,54.77s-2.08-15.52-2.08-15.52A29.4,29.4,0,0,1,44.31,36.65Z"/></g></svg>