<svg id="Camada_1" data-name="Camada 1" xmlns="http://www.w3.org/2000/svg" viewBox="0 0 108 177.6"><defs><style>.cls-1{fill:#4872f9;}.cls-2{fill:#668aff;fill-rule:evenodd;}</style></defs><g id="Camada_1-2" data-name="Camada_1"><rect class="cls-1" width="108" height="177.6"/><path id="dragon-icon.svg" class="cls-2" d="M56.76,42.3a3.07,3.07,0,0,0,1-1.28,9.4,9.4,0,0,1,5.9,8.67A9.5,9.5,0,0,1,54,59.08a9.64,9.64,0,0,1-5.79-1.9c-.53-.25-1-.49-1.32-.69A2.72,2.72,0,0,0,45.78,56c-.67.09-.47.7-.3,1.26.12.37.23.72.06.87s-.76-.41-1.44-1c-.92-.88-2-1.93-2.55-1.62s0,.93.48,1.76l0,.06c.2.35.44.71.66,1,.45.66.8,1.19.63,1.28s-1.73-.91-3-2.32c-.49-.54-1-1.13-1.41-1.68h0c-1-1.21-1.77-2.21-2.22-2.09s-.13,1.26.47,2.34c.29.51.62,1,.91,1.47h0c.44.69.78,1.21.66,1.28s-1.63-1.34-2.62-3.14a34.13,34.13,0,0,1-1.49-3.2,5.55,5.55,0,0,0-1-1.89c-.74-.27-.74,1.25-.45,3.43,0,.28.1.58.17.88a23.28,23.28,0,0,0,45.43-6.57A22.91,22.91,0,0,0,57.47,25.5a10,10,0,0,1,.31-1.68A54,54,0,0,0,60,17.62l0-.23c.13-1.18.37-3.38-1.52-3.38-1,0-1.47.75-2,1.61h0a9.83,9.83,0,0,1-.68,1A62.37,62.37,0,0,1,49,23.43c-3.77,3.29-7.47,6-9.63,7.56h0c-1,.72-1.65,1.2-1.85,1.4-1.55,1.51-7.09,11.5-7.09,11.5s-1.79,3.21-1.15,3.86,2.17.5,2.17.5S52.1,43.52,54,43.15l1.12-.21A3.43,3.43,0,0,0,56.76,42.3ZM42.17,36.21a37.24,37.24,0,0,0-3,3.57s3.42.21,5.3-1.58S46,33.37,46,33.37A40.08,40.08,0,0,0,42.17,36.21Z"/></g></svg>