<svg id="Camada_1" data-name="Camada 1" xmlns="http://www.w3.org/2000/svg" viewBox="0 0 108 177.6"><defs><style>.cls-1{fill:#fb4b6e;}.cls-2{fill:#ff6987;fill-rule:evenodd;}</style></defs><g id="Camada_1-2" data-name="Camada_1"><rect class="cls-1" width="108" height="177.6"/><path id="fighting-icon.svg" class="cls-2" d="M36.57,21.37a5.87,5.87,0,0,1,10.6-1.76h1.72a5.87,5.87,0,0,1,9.6,1.77h1.44A5.87,5.87,0,0,1,68.43,24h3.91a.16.16,0,0,1,.09,0A4.89,4.89,0,0,1,73,24a5.87,5.87,0,0,1,5.87,5.87V47.84c0,.11,0,.21,0,.32-.35,12.21-11.33,22-24.83,22-13.72,0-24.84-10.12-24.84-22.62A21.48,21.48,0,0,1,36,32c0,5.88.08,12,.54,11.85C37.75,43.56,36.79,25.35,36.57,21.37Z"/></g></svg>