<svg id="Camada_1" data-name="Camada 1" xmlns="http://www.w3.org/2000/svg" viewBox="0 0 108 177.6"><defs><style>.cls-1{fill:#759dff;}.cls-2{fill:#91b0ff;fill-rule:evenodd;}</style></defs><g id="Camada_1-2" data-name="Camada_1"><rect class="cls-1" width="108" height="177.6"/><path id="flying-icon.svg" class="cls-2" d="M48.69,69.6c9.79,0,18.16-5.44,21.62-13.14,0-.1-13.88,3.61-13.44,2.3.2-.58,8.73-3.7,14.95-7.34C75.4,49.33,77,44.91,77,44.91A66.45,66.45,0,0,1,68,48.57c-6.14,1.5-11.54,1.34-11.54,1.18,0-.34,9-2,21.43-9.63a17.74,17.74,0,0,0,7.45-9.73S78.88,34.23,75,35.5c-9.23,3-17.67,3.91-17.67,3.5,0-.87,7.42-2.91,15.29-6.72a86.1,86.1,0,0,0,11.74-7.45c6.71-4.71,7.82-13.1,7.82-13.1a105,105,0,0,1-9.86,5.69C69,23.27,57.19,26.35,48.69,27c-12.82,1-23.3,10-23.3,21.56s10.43,21,23.3,21Z"/></g></svg>