<svg id="Camada_1" data-name="Camada 1" xmlns="http://www.w3.org/2000/svg" viewBox="0 0 108 177.6"><defs><style>.cls-1{fill:#fb7804;}.cls-2{fill:#fa943a;fill-rule:evenodd;}</style></defs><g id="Camada_1-2" data-name="Camada_1"><rect class="cls-1" width="108" height="177.6"/><path id="fire-icon.svg" class="cls-2" d="M66.49,58.52c.82-3-.77-9.15-.77-9.15s-1.16,5-3,6.87a9.49,9.49,0,0,1-6.12,3,6.56,6.56,0,0,0,3.73-5.89,6.69,6.69,0,0,0-13.37,0,6.43,6.43,0,0,0,.62,2.77A8,8,0,0,1,45,51.29S42.37,62,49.47,67s21,.71,21,.71-19.92,14-34.68-1.24C23.11,53.36,32.5,36.07,32.5,36.07a16,16,0,0,0-.4,3.46,6.19,6.19,0,0,0,1,3.28s3-6.35,5.35-8.93a45.79,45.79,0,0,1,7.41-6.14,28.23,28.23,0,0,0,4.44-3.56c5.35-6,2.07-16.86,2.07-16.86s6,5.31,7.71,12.17c.64,2.62.23,5.59-.14,8.25-.6,4.32-1.09,7.81,3.24,7.59,7-.37.92-11.15.92-11.15S80,32.52,78.78,47.09,61.45,65,61.45,65,65.67,61.51,66.49,58.52Z"/></g></svg>