<svg id="Camada_1" data-name="Camada 1" xmlns="http://www.w3.org/2000/svg" viewBox="0 0 108 177.6"><defs><style>.cls-1{fill:#606cfb;}.cls-2{fill:#858ffc;fill-rule:evenodd;}</style></defs><g id="Camada_1-2" data-name="Camada_1"><rect class="cls-1" width="108" height="177.6"/><path id="ghost-icon.svg" class="cls-2" d="M65,69.19a90.57,90.57,0,0,1-11.36,0C40,67.4,29.16,57.46,29.16,44a24.85,24.85,0,0,1,49.68,0,24,24,0,0,1-6.36,16.26c-1.07,1.17.4,2,1.9,2.82s3,1.65,2.09,2.84S70.34,68.91,65,69.19ZM50.51,41a3.89,3.89,0,0,1-7.77,0,3.79,3.79,0,0,1,1.95-3.29A3.41,3.41,0,0,0,48.11,41Zm12-3.29A3.43,3.43,0,0,1,59.12,41h-2.4a3.88,3.88,0,0,0,7.76,0A3.78,3.78,0,0,0,62.54,37.68Z"/></g></svg>