<svg id="Camada_1" data-name="Camada 1" xmlns="http://www.w3.org/2000/svg" viewBox="0 0 108 177.6"><defs><style>.cls-1{fill:#00c2da;}.cls-2{fill:#57d0e0;fill-rule:evenodd;}</style></defs><g id="Camada_1-2" data-name="Camada_1"><rect class="cls-1" width="108" height="177.6"/><g id="ice-icon.svg"><polygon class="cls-2" points="66.8 21.89 66.96 35.65 54.95 41.42 54.8 28.42 66.8 21.89"/><polygon class="cls-2" points="78.84 43.58 66.95 50.38 55.06 43.57 66.95 37.33 78.84 43.58"/><polygon class="cls-2" points="52.94 43.58 41.05 50.38 29.16 43.57 41.05 37.33 52.94 43.58"/><polygon class="cls-2" points="40.92 21.83 53.26 27.94 52.95 41.26 41.3 35.49 40.92 21.83"/><polygon class="cls-2" points="67.14 65.12 54.8 59.01 55.12 45.7 66.77 51.47 67.14 65.12"/><polygon class="cls-2" points="41.35 65.25 41.19 51.48 53.2 45.72 53.35 58.71 41.35 65.25"/></g></g></svg>