<svg id="Camada_1" data-name="Camada 1" xmlns="http://www.w3.org/2000/svg" viewBox="0 0 108 177.6"><defs><style>.cls-1{fill:#ff9b7a;}.cls-2{fill:#ffb096;fill-rule:evenodd;}</style></defs><g id="Camada_1-2" data-name="Camada_1"><rect class="cls-1" width="108" height="177.6"/><path id="physchic-icon.svg" class="cls-2" d="M73.43,60.69s-6.27,5-18.73,3c-9.46-1.58-14.51-12-14.51-17.61,0-13.29,9.84-16.31,16.49-16.31s11,6.48,11,11.5-3.55,9.41-9.07,9.41-7.16-3.88-7.16-7.45,2.88-4.82,5.51-4.82,3.54,2.25,3.54,4.18a2.54,2.54,0,0,1-2.75,2.62c-1.25,0-1.37-.63-1.85-1.29s.61-3.17-1.18-3.17-2.13,2.88-2.13,2.88.65,5.56,6,5.47,7.91-4.25,7.17-8.35S61,32.23,54,33.11s-9.85,8-8.59,15.5S55.76,60.54,62.87,59s14.2-6.73,14.2-19.79S65.76,18.28,52.28,19.57,30.42,32.65,31,46.82s14,21.88,25.34,22.27a26.87,26.87,0,0,0,18.33-6.18s1.57-1.39,1-2.49S73.43,60.69,73.43,60.69Z"/></g></svg>