<svg id="Camada_1" data-name="Camada 1" xmlns="http://www.w3.org/2000/svg" viewBox="0 0 108 177.6"><defs><style>.cls-1{fill:#be50eb;}.cls-2{fill:#cb76ed;fill-rule:evenodd;}</style></defs><g id="Camada_1-2" data-name="Camada_1"><rect class="cls-1" width="108" height="177.6"/><path id="poison-icon.svg" class="cls-2" d="M70.67,57.5a20.82,20.82,0,0,0,8.17-16.26c0-12.1-11.12-21.92-24.84-21.92S29.16,29.14,29.16,41.24a20.74,20.74,0,0,0,7.63,15.82,11.56,11.56,0,0,0-.44,3.17c0,4.84,2.93,8.77,6.54,8.77,2.34,0,4.4-1.66,5.55-4.15C49.6,67.34,51.65,69,54,69a6.17,6.17,0,0,0,5.23-3.51A6.17,6.17,0,0,0,64.46,69C68.07,69,71,65.07,71,60.23A11.53,11.53,0,0,0,70.67,57.5ZM68.38,41.68c0,6.15-6.58,11.13-14.71,11.13S39,47.83,39,41.68s6.58-11.13,14.7-11.13S68.38,35.53,68.38,41.68Z"/></g></svg>