<svg id="Camada_1" data-name="Camada 1" xmlns="http://www.w3.org/2000/svg" viewBox="0 0 108 177.6"><defs><style>.cls-1{fill:#04b5a2;}.cls-2{fill:#59bdb3;fill-rule:evenodd;}</style></defs><g id="Camada_1-2" data-name="Camada_1"><rect class="cls-1" width="108" height="177.6"/><path id="rock-icon.svg" class="cls-2" d="M71.21,43.31v0l4-23.47a0,0,0,0,1,0,0h1.27a0,0,0,0,1,0,0l9.07,28.71s0,0,0,0l-6.69,5.22h0ZM22.39,58.87s0,0,0,0L36.19,63.4h0L67,42.12h0l3.3-22.17s0,0,0,0H43L22.39,44.78V58.87Zm19.54,5.68L57,69.48h0L74.94,56.62s0,0,0,0l-6.72-10h0Z"/></g></svg>