<svg xmlns="http://www.w3.org/2000/svg" viewBox="0 0 18 18"><defs><style>.cls-1{fill:#1d9bf0;}</style></defs><g id="Camada_2" data-name="Camada 2"><g id="Camada_1-2" data-name="Camada 1"><path class="cls-1" d="M0,2.5A2.5,2.5,0,0,1,2.5,0h13A2.5,2.5,0,0,1,18,2.5v13A2.5,2.5,0,0,1,15.5,18H2.5A2.5,2.5,0,0,1,0,15.5ZM2.5,2a.5.5,0,0,0-.5.5v9.09l3-3,3,3,5-5,3,3V2.5a.5.5,0,0,0-.5-.5ZM16,12.41l-3-3-5,5-3-3-3,3V15.5a.5.5,0,0,0,.5.5h13a.5.5,0,0,0,.5-.5ZM6.75,4A1.75,1.75,0,1,0,8.5,5.75,1.75,1.75,0,0,0,6.75,4Z"/></g></g></svg>