<?xml version="1.0" encoding="utf-8"?>
<!-- Generator: Adobe Illustrator 26.3.0, SVG Export Plug-In . SVG Version: 6.00 Build 0)  -->
<svg version="1.1" id="Camada_1" xmlns="http://www.w3.org/2000/svg" xmlns:xlink="http://www.w3.org/1999/xlink" x="0px" y="0px"
	 viewBox="0 0 24 24" style="enable-background:new 0 0 24 24;" xml:space="preserve">
<style type="text/css">
	.st0{fill:#1D9BF0;}
</style>
<g>
	<path class="st0" d="M8,9.5C8,8.1,8.7,7,9.5,7S11,8.1,11,9.5S10.3,12,9.5,12S8,10.9,8,9.5z M14.5,12c0.8,0,1.5-1.1,1.5-2.5
		S15.3,7,14.5,7S13,8.1,13,9.5S13.7,12,14.5,12z M12,16c-2.2,0-3-2.2-3.1-2.3l-1.9,0.6C7.1,14.5,8.3,18,12,18s4.9-3.5,4.9-3.7
		l-1.9-0.6C15,13.8,14.2,16,12,16L12,16z M22.2,12c0,5.7-4.6,10.2-10.2,10.2S1.8,17.7,1.8,12S6.3,1.8,12,1.8S22.2,6.3,22.2,12
		L22.2,12z M20.2,12c0-4.5-3.7-8.2-8.2-8.2S3.8,7.5,3.8,12s3.7,8.2,8.2,8.2S20.2,16.5,20.2,12L20.2,12z"/>
</g>
</svg>
