<svg id="visual" viewBox="0 0 900 600" width="900" height="600" xmlns="http://www.w3.org/2000/svg" xmlns:xlink="http://www.w3.org/1999/xlink" version="1.1"><rect x="0" y="0" width="900" height="600" fill="#00121f"></rect><path d="M0 376L21.5 385.3C43 394.7 86 413.3 128.8 409C171.7 404.7 214.3 377.3 257.2 370.7C300 364 343 378 385.8 389.8C428.7 401.7 471.3 411.3 514.2 420.2C557 429 600 437 642.8 432.7C685.7 428.3 728.3 411.7 771.2 408.5C814 405.3 857 415.7 878.5 420.8L900 426L900 601L878.5 601C857 601 814 601 771.2 601C728.3 601 685.7 601 642.8 601C600 601 557 601 514.2 601C471.3 601 428.7 601 385.8 601C343 601 300 601 257.2 601C214.3 601 171.7 601 128.8 601C86 601 43 601 21.5 601L0 601Z" fill="#fa7268"></path><path d="M0 463L21.5 464C43 465 86 467 128.8 462.3C171.7 457.7 214.3 446.3 257.2 441.3C300 436.3 343 437.7 385.8 441.8C428.7 446 471.3 453 514.2 450.5C557 448 600 436 642.8 438.7C685.7 441.3 728.3 458.7 771.2 464.3C814 470 857 464 878.5 461L900 458L900 601L878.5 601C857 601 814 601 771.2 601C728.3 601 685.7 601 642.8 601C600 601 557 601 514.2 601C471.3 601 428.7 601 385.8 601C343 601 300 601 257.2 601C214.3 601 171.7 601 128.8 601C86 601 43 601 21.5 601L0 601Z" fill="#ef5f67"></path><path d="M0 444L21.5 445.8C43 447.7 86 451.3 128.8 461C171.7 470.7 214.3 486.3 257.2 495.5C300 504.7 343 507.3 385.8 502.3C428.7 497.3 471.3 484.7 514.2 474.2C557 463.7 600 455.3 642.8 459.8C685.7 464.3 728.3 481.7 771.2 487.8C814 494 857 489 878.5 486.5L900 484L900 601L878.5 601C857 601 814 601 771.2 601C728.3 601 685.7 601 642.8 601C600 601 557 601 514.2 601C471.3 601 428.7 601 385.8 601C343 601 300 601 257.2 601C214.3 601 171.7 601 128.8 601C86 601 43 601 21.5 601L0 601Z" fill="#e34c67"></path><path d="M0 525L21.5 526.2C43 527.3 86 529.7 128.8 530.3C171.7 531 214.3 530 257.2 524.8C300 519.7 343 510.3 385.8 507.5C428.7 504.7 471.3 508.3 514.2 507C557 505.7 600 499.3 642.8 500.5C685.7 501.7 728.3 510.3 771.2 513C814 515.7 857 512.3 878.5 510.7L900 509L900 601L878.5 601C857 601 814 601 771.2 601C728.3 601 685.7 601 642.8 601C600 601 557 601 514.2 601C471.3 601 428.7 601 385.8 601C343 601 300 601 257.2 601C214.3 601 171.7 601 128.8 601C86 601 43 601 21.5 601L0 601Z" fill="#d53867"></path><path d="M0 569L21.5 569C43 569 86 569 128.8 565.7C171.7 562.3 214.3 555.7 257.2 551.3C300 547 343 545 385.8 543.2C428.7 541.3 471.3 539.7 514.2 540.5C557 541.3 600 544.7 642.8 549.8C685.7 555 728.3 562 771.2 560.7C814 559.3 857 549.7 878.5 544.8L900 540L900 601L878.5 601C857 601 814 601 771.2 601C728.3 601 685.7 601 642.8 601C600 601 557 601 514.2 601C471.3 601 428.7 601 385.8 601C343 601 300 601 257.2 601C214.3 601 171.7 601 128.8 601C86 601 43 601 21.5 601L0 601Z" fill="#c62368"></path></svg>