<?xml version="1.0" encoding="UTF-8"?>
<!DOCTYPE svg PUBLIC "-//W3C//DTD SVG 1.1//EN" "http://www.w3.org/Graphics/SVG/1.1/DTD/svg11.dtd">
<!-- Creator: CorelDRAW 2021 (64 Bit) -->
<svg xmlns="http://www.w3.org/2000/svg" xml:space="preserve" width="44.1729mm" height="43.3493mm" version="1.1" style="shape-rendering:geometricPrecision; text-rendering:geometricPrecision; image-rendering:optimizeQuality; fill-rule:evenodd; clip-rule:evenodd"
viewBox="0 0 4417.3 4334.94"
 xmlns:xlink="http://www.w3.org/1999/xlink"
 xmlns:xodm="http://www.corel.com/coreldraw/odm/2003">
 <defs>
  <style type="text/css">
   <![CDATA[
    .fil2 {fill:#FEFEFE;fill-rule:nonzero}
    .fil1 {fill:#E3304A;fill-rule:nonzero}
    .fil0 {fill:black;fill-rule:nonzero}
   ]]>
  </style>
 </defs>
 <g id="Camada_x0020_1">
  <metadata id="CorelCorpID_0Corel-Layer"/>
  <g id="_1805887953152">
   <path class="fil0" d="M3591.01 4189.64c-2.25,-5.58 -2.79,-9.29 -3.97,-9.03 -1.73,0.66 -4.53,2.25 -7.05,3.19 -13.67,7.44 -38.51,17.8 -72.9,17.66 -65.88,-0.52 -124.43,-51 -124.43,-132.66 0,-89.11 48.74,-137.46 115,-137.46 37.06,0.13 62.68,9.31 86.84,25.9 11.43,-41.02 30.69,-79.67 54.58,-111.68 -9.43,-6.9 -25.36,-17.12 -46.87,-27.36l0 0.13c-32.39,-14.6 -68.92,-22.7 -109.95,-22.7 -146.35,0 -258.02,99.08 -258.02,270.1 0,170.26 111.67,269.19 258.02,269.19 70.77,0.13 125.09,-22.83 125.09,-22.83 11.81,-4.66 30.81,-13.56 38.9,-17.28 -33.59,-45.67 -49.01,-88.97 -55.24,-105.17z"/>
   <path class="fil0" d="M395.46 3905.58l58.17 0c52.05,0 105.71,-15.13 105.71,-73.31 0,-63.33 -51.2,-69.17 -103.72,-69.17l-60.16 0 0 142.48zm0 286.99l60.83 0c57.88,0 118.32,-10.1 118.32,-80.36 0,-75.28 -62.16,-82.05 -116.6,-82.05l-62.55 0 0 162.41zm-158.3 -560.14l287.25 0c110.76,0 193.22,56.29 193.22,175.02 0,87.25 -38.25,135.72 -104.77,161.35l0 2.12c79.21,18.6 120.04,68.11 120.04,152.19 0,165.46 -124.96,199.86 -231.46,199.86l-264.28 0 0 -690.54z"/>
   <path class="fil0" d="M1940.47 4198.27c51.11,0 93.62,-56.29 93.62,-131.6 0,-77.94 -37.46,-134.4 -93.62,-134.4 -59.5,0 -92.83,59.37 -92.83,127.62 0,82.09 34.93,138.38 92.83,138.38zm246.74 124.7l-141.17 0 0 -77.42 -1.73 0c-29.89,57.36 -87.11,89.38 -152.45,89.38 -131.87,0 -202.51,-126.7 -202.51,-279.01 0,-126.69 67.46,-260.3 189.89,-260.3 61.23,0 113.15,18.86 152.32,78.24l1.6 0 0 -243.29 154.05 0 0 692.4z"/>
   <path class="fil0" d="M4021.68 4065.73c0,-77 -28.82,-145.41 -99.46,-145.41 -70.52,0 -99.47,68.41 -99.47,145.41 0,76.25 28.95,144.5 99.47,144.5 70.64,0 99.46,-68.25 99.46,-144.5zm-357.36 0c0,-171.03 111.55,-270.11 257.9,-270.11 146.46,0 257.88,99.08 257.88,270.11 0,170.26 -111.42,269.2 -257.88,269.2 -146.35,0 -257.9,-98.94 -257.9,-269.2z"/>
   <path class="fil0" d="M1467.83 4159.49c-20.18,35.34 -53.91,53.52 -95.47,53.52 -35.73,0 -62.82,-20.84 -62.82,-56.57 0,-49.41 40.77,-68.13 92.69,-68.13 22.97,0 45.95,1.98 65.6,2.93l0 68.25zm150.59 163.48c-6.89,-40.63 -8.49,-80.87 -8.49,-121.51l0 -192.16c0,-157.24 -97.88,-213.67 -211.14,-213.67 -64.69,0 -120.72,10.62 -174.51,35.45l0 120.59 0.14 1.33c42.63,-27.64 91.75,-38.65 141.17,-38.65 55.5,0 100.38,18.86 101.19,89.25 -19.53,-4.13 -46.48,-7.04 -71.32,-7.04 -81.8,0 -229.07,18.58 -229.07,176.08 0,111.96 78.48,162.28 166.13,162.28 57.89,0 107.83,-27.49 136.11,-80.07l0 68.12 149.79 0z"/>
   <path class="fil0" d="M1091.75 3795.63c-66.4,0 -104.75,41.56 -131.23,106.77l-1.53 0 0 -94.95 -139.57 0 0 515.52 153.32 0 0 -217.78c0,-100.68 39.31,-161.36 110.66,-166.54 14.86,-1.2 39.43,3.32 52.57,8.37l0 -143.54c-13.14,-4.66 -30.55,-7.85 -44.22,-7.85z"/>
   <path class="fil0" d="M2419.48 4016.34c3.58,-59.36 29.86,-107.83 85.12,-107.83 61.35,0 85.25,48.47 85.25,107.83l-170.37 0zm308.22 68.26c0,-153.52 -59.63,-288.97 -223.76,-288.97 -137.84,0 -237.71,99.07 -237.71,269.18 0,170.12 111.68,270.11 257.88,270.11 57.11,0 113.29,-9.97 162.68,-32.66l0 -125.5c-45.95,28.54 -93.48,39.45 -135.18,39.45 -74.89,0 -121.91,-27.76 -130.41,-98.94l306.5 0 0 -32.67z"/>
   <path class="fil0" d="M2985.19 3795.63c-88.44,0 -188.96,48.48 -188.96,167.47 0,185.77 217.92,124.54 217.92,211.66 0,35.46 -30.55,41.44 -62.03,41.44 -55.37,0 -108.35,-17.93 -143.81,-35.71l0 122.82c40.38,16.47 87.63,31.62 152.18,31.62 100.52,0 207.04,-34.68 207.04,-172.11 0,-196.14 -228.29,-132.67 -228.29,-212.74 0,-28.82 37.45,-36.38 70.65,-35.73 35.19,0.93 90.03,15.68 122.3,38.37l0 -126.55c-46.73,-19.92 -97.73,-30.54 -147,-30.54z"/>
   <path class="fil0" d="M979.18 3197.64c0,52.99 0.99,86.87 4.44,115.27l-160.15 0c-2.26,-24.18 -4.52,-54.85 -4.52,-91.89l-2.18 0c-26.77,60.29 -71.25,100.53 -163.55,100.53 -128.01,0 -170.25,-88.98 -170.25,-198.95l0 -360.53 175.83 0 0 339.57c0,68.64 32.14,86.57 67.86,86.57 56.69,0 76.64,-46.47 76.64,-117.4l0 -308.74 175.88 0 0 435.57z"/>
   <path class="fil0" d="M1414.71 2973.62c0,-68.79 -32.26,-86.72 -67.85,-86.72 -56.84,0 -76.89,46.47 -76.89,117.26l0 308.76 -175.56 0 0 -435.6c0,-52.83 -1.19,-86.7 -4.51,-115.25l160.14 0c2.27,24.29 4.39,54.98 4.39,92.02l2.39 0c26.69,-60.29 71.17,-100.53 163.48,-100.53 127.88,0 170.24,88.98 170.24,198.8l0 360.56 -175.83 0 0 -339.3z"/>
   <path class="fil0" d="M3394.13 2684.91c4.51,-60.29 37.84,-129.08 105.71,-129.08 58.97,0 100.12,38.1 131.33,38.1 22.17,0 27.76,-23.23 29.88,-38.1l82.46 0c0,7.44 -5.58,129.08 -105.71,129.08 -51.13,0 -103.44,-38.1 -131.2,-38.1 -23.36,0 -30.15,28.67 -30.15,38.1l-82.32 0z"/>
   <path class="fil0" d="M1936.22 3179.58c54.7,0 99.99,-60.02 99.99,-140.24 0,-83.38 -39.97,-143.43 -99.99,-143.43 -63.22,0 -98.81,63.36 -98.81,136.12 0,87.53 37.33,147.55 98.81,147.55zm263.33 132.93l-150.73 0 0 -82.46 -1.85 0c-31.87,60.95 -92.7,95.21 -162.41,95.21 -140.65,0 -215.8,-135.05 -215.8,-297.45 0,-135.07 71.71,-277.55 202.26,-277.55 65.2,0 120.57,20.05 162.41,83.25l1.85 0 0 -259.22 164.27 0 0 738.22z"/>
   <path class="fil0" d="M4248.49 3038.28c0,-82.32 -30.81,-155.11 -106.1,-155.11 -75.3,0 -106.25,72.79 -106.25,155.11 0,81.28 30.95,154.06 106.25,154.06 75.29,0 106.1,-72.78 106.1,-154.06zm-381.12 0c0,-182.46 118.84,-288.02 275.02,-288.02 156.03,0 274.91,105.56 274.91,288.02 0,181.41 -118.88,286.98 -274.91,286.98 -156.18,0 -275.02,-105.57 -275.02,-286.98z"/>
   <path class="fil0" d="M2599.68 3138.14c-21.78,37.73 -57.37,57.11 -101.85,57.11 -37.99,0 -67.21,-22.31 -67.21,-60.42 0,-52.58 43.71,-72.5 98.94,-72.5 24.56,0 49.15,1.97 70.12,3.05l0 72.76zm160.54 174.37c-7.28,-43.28 -9.15,-86.45 -9.15,-129.61l0 -204.76c0,-167.74 -104.38,-227.89 -225.09,-227.89 -68.65,0 -128.69,11.28 -186.05,37.85l0 128.54 0.14 1.46c45.42,-29.61 97.99,-41.18 150.72,-41.18 58.82,0 106.89,19.94 107.83,94.97 -20.99,-4.26 -49.8,-7.44 -76.23,-7.44 -87.12,0 -244.08,19.92 -244.08,187.78 0,119.25 83.66,173.03 176.89,173.03 61.87,0 114.99,-29.49 145.14,-85.4l0 72.65 159.88 0z"/>
   <path class="fil0" d="M3631.12 3138.14c-21.51,37.73 -57.24,57.11 -101.59,57.11 -38.11,0 -67.07,-22.31 -67.07,-60.42 0,-52.58 43.44,-72.5 98.81,-72.5 24.44,0 48.99,1.97 69.85,3.05l0 72.76zm160.54 174.37c-7.15,-43.28 -9.02,-86.45 -9.02,-129.61l0 -204.76c0,-167.74 -104.23,-227.89 -225.09,-227.89 -68.79,0 -128.68,11.28 -186.05,37.85l0 128.54 0.13 1.46c45.41,-29.61 98.02,-41.18 150.6,-41.18 58.96,0 107.17,19.94 107.83,94.97 -20.71,-4.26 -49.67,-7.44 -75.96,-7.44 -87.24,0 -244.22,19.92 -244.22,187.78 0,119.25 83.66,173.03 177.03,173.03 61.75,0 115,-29.49 145.02,-85.4l0 72.65 159.73 0z"/>
   <polygon class="fil0" points="-0,2577.2 429.05,2577.2 429.05,2714.91 175.16,2714.91 175.16,2867.91 396.26,2867.91 396.26,3000.17 175.16,3000.17 175.16,3312.91 -0,3312.91 "/>
   <path class="fil0" d="M3104.44 3330.3c75.3,0 133.07,-24.43 133.07,-24.43 12.76,-4.91 33.08,-14.34 41.69,-18.45 -35.85,-48.62 -52.18,-94.95 -58.97,-112.09 -2.37,-5.98 -3.04,-9.81 -4.11,-9.43 -1.86,0.53 -5.03,2.4 -7.57,3.19 -14.74,7.97 -40.89,18.98 -77.68,18.86 -70.37,-0.4 -132.79,-54.32 -132.79,-141.42 0,-95.1 52.05,-146.62 122.69,-146.62 39.44,0.13 66.8,9.96 92.44,27.49 12.23,-43.56 32.8,-84.85 58.29,-118.84 -10.08,-7.31 -27.09,-18.07 -49.94,-29.23l0 0.13c-34.51,-15.4 -73.55,-24.03 -117.12,-24.03 -156.17,0 -275.16,105.45 -275.16,288.05 0,157.61 89.9,257.62 215.81,281.25l-48.75 80.34 24.44 18.99c8.77,-4.26 18.72,-8.5 41.17,-8.5 25.5,0 47.67,14.88 47.67,34.93 0,32.79 -23.23,44.35 -56.57,44.35 -43.56,0 -69.06,-13.67 -79.02,-17.92l-21.25 48.61c12.23,8.48 66.81,22.3 119.13,22.3 63.22,0 133.46,-31.73 133.46,-96.28 0,-51.79 -38.91,-84.59 -93.36,-84.59 -15.66,0 -27.76,2.13 -37.84,5.32l25.76 -42.25c1.6,0 2.93,0.27 4.51,0.27z"/>
   <path class="fil1" d="M3314.92 2212.68l-1811.07 0c0,0 -401.6,0 -401.6,-401.57l0 -1811.1 1811.1 0c0,0 401.57,0 401.57,401.71l0 1810.96z"/>
   <polygon class="fil2" points="2108.71,1901.79 1999.97,1901.79 1999.97,1343.51 2108.71,1343.51 "/>
   <polygon class="fil2" points="2386.27,1901.79 2207.92,1901.79 2207.92,1135.43 2386.27,1135.43 "/>
   <path class="fil2" d="M1902.22 601.84c0,0 179.68,-175.83 482.99,-117.93 0,0 133.46,20.71 235.57,111.56 0,0 15.27,14.34 27.09,2.65 0,0 14.75,-11.68 -1.73,-29.08 0,0 -88.03,-122.04 -261.47,-175.96 0,0 -238.51,-85.25 -483.39,30.01 0,0 -150.85,62.54 -234.39,232.66 0,0 -119.11,38.52 -208.6,88.71 0,0 -26.32,10.49 -16.35,30.94 0,0 8.5,14.73 31.73,3.86 0,0 82.88,-28.69 162.82,-46.62 0,0 -64.28,166.79 2.93,374.1 29.87,92.16 84.31,185.91 167.85,261.22 0,0 13.41,14.33 28.28,4.63 0,0 13.02,-9.29 3.86,-24.69 0,0 -66.4,-100.01 -92.3,-242.36 -21.51,-115.94 -11.29,-276.08 69.05,-403.17 0,0 306.89,-42.77 568.51,55.64 0,0 444.07,145.02 332.26,413.8 0,0 -32.54,93.36 -155.12,177.82 0,0 -20.57,11.93 -9.41,29.07 0,0 9.3,13.28 30.41,4.78 0,0 187.76,-60.96 268.66,-211.94 0,0 164.53,-251.39 -223.24,-456.56 0,0 -106.5,-56.97 -243.56,-87.51 0,0 -246.87,-61.09 -482.45,-25.63z"/>
  </g>
 </g>
</svg>
