<?xml version="1.0" encoding="UTF-8"?>
<!DOCTYPE svg PUBLIC "-//W3C//DTD SVG 1.1//EN" "http://www.w3.org/Graphics/SVG/1.1/DTD/svg11.dtd">
<!-- Creator: CorelDRAW 2021 (64 Bit) -->
<svg xmlns="http://www.w3.org/2000/svg" xml:space="preserve" width="37.435mm" height="20.3782mm" version="1.1" style="shape-rendering:geometricPrecision; text-rendering:geometricPrecision; image-rendering:optimizeQuality; fill-rule:evenodd; clip-rule:evenodd"
viewBox="0 0 3743.5 2037.82"
 xmlns:xlink="http://www.w3.org/1999/xlink"
 xmlns:xodm="http://www.corel.com/coreldraw/odm/2003">
 <defs>
  <style type="text/css">
   <![CDATA[
    .fil2 {fill:#7BD15C}
    .fil1 {fill:black;fill-rule:nonzero}
    .fil0 {fill:#7BD15C;fill-rule:nonzero}
   ]]>
  </style>
 </defs>
 <g id="Camada_x0020_1">
  <metadata id="CorelCorpID_0Corel-Layer"/>
  <polygon class="fil0" points="374.35,1468.77 -0,1468.77 -0,0 374.35,0 "/>
  <polygon id="_1" class="fil0" points="1178.1,1468.77 803.75,1468.77 803.75,332.51 513.07,332.51 513.07,0 1468.77,0 1468.77,332.51 1178.1,332.51 "/>
  <polygon id="_2" class="fil0" points="2422.26,1468.77 1607.5,1468.77 1607.5,0 2422.26,0 2422.26,332.51 1966.43,332.51 1966.43,557.12 2409.05,557.12 2409.05,889.63 1966.43,889.63 1966.43,1136.26 2422.26,1136.26 "/>
  <path id="_3" class="fil0" d="M2999.2 1468.77l-358.93 0 0 -1468.77 480.05 0c212.86,0 363.34,36.7 451.42,110.1 114.51,95.42 171.76,225.34 171.76,389.76 0,158.55 -51.38,285.54 -154.14,380.96 -91.02,85.15 -234.16,127.72 -429.41,127.72l-160.75 0 0 460.23zm0 -1136.26l0 343.52 151.95 0c155.61,0 233.41,-56.89 233.41,-170.66 0,-115.24 -82.94,-172.86 -248.83,-172.86l-136.53 0z"/>
  <polygon class="fil1" points="788.01,1777.83 788.01,1613.11 821.37,1613.11 821.37,1777.83 "/>
  <path id="_1_0" class="fil1" d="M961.44 1777.83l-31.52 0 0 -60.85c0,-12.88 -0.69,-21.2 -2.03,-24.96 -1.38,-3.79 -3.57,-6.71 -6.63,-8.82 -3.07,-2.11 -6.75,-3.14 -11.05,-3.14 -5.52,0 -10.46,1.49 -14.84,4.48 -4.4,3 -7.4,6.98 -9.01,11.89 -1.64,4.95 -2.45,14.07 -2.45,27.41l0 53.99 -31.52 0 0 -119.4 29.22 0 0 17.53c10.47,-13.39 23.62,-20.06 39.53,-20.06 6.98,0 13.38,1.27 19.17,3.76 5.83,2.53 10.2,5.71 13.15,9.59 2.99,3.91 5.06,8.32 6.21,13.26 1.19,4.95 1.77,12 1.77,21.21l0 74.11z"/>
  <path id="_2_1" class="fil1" d="M982.1 1744.24l31.75 -4.83c1.34,6.1 4.06,10.74 8.2,13.88 4.11,3.18 9.9,4.76 17.3,4.76 8.16,0 14.3,-1.5 18.44,-4.49 2.76,-2.11 4.14,-4.95 4.14,-8.47 0,-2.38 -0.77,-4.37 -2.26,-5.95 -1.58,-1.49 -5.1,-2.91 -10.55,-4.18 -25.49,-5.63 -41.64,-10.77 -48.46,-15.41 -9.47,-6.48 -14.19,-15.45 -14.19,-26.92 0,-10.39 4.1,-19.09 12.27,-26.14 8.17,-7.06 20.82,-10.59 37.96,-10.59 16.33,0 28.49,2.69 36.42,8.02 7.94,5.36 13.42,13.26 16.41,23.73l-29.67 5.52c-1.27,-4.68 -3.72,-8.28 -7.29,-10.77 -3.56,-2.49 -8.66,-3.72 -15.3,-3.72 -8.35,0 -14.33,1.15 -17.98,3.49 -2.41,1.65 -3.6,3.79 -3.6,6.4 0,2.26 1.03,4.18 3.14,5.75 2.88,2.11 12.73,5.06 29.6,8.9 16.87,3.83 28.64,8.51 35.31,14.07 6.64,5.6 9.94,13.46 9.94,23.5 0,10.93 -4.57,20.36 -13.73,28.22 -9.13,7.86 -22.66,11.81 -40.6,11.81 -16.26,0 -29.14,-3.3 -38.65,-9.85 -9.47,-6.56 -15.68,-15.45 -18.6,-26.73z"/>
  <path id="_3_2" class="fil1" d="M1175.85 1658.43l0 25.08 -21.63 0 0 48.35c0,9.81 0.19,15.53 0.61,17.14 0.43,1.61 1.35,2.95 2.84,4.02 1.46,1.04 3.22,1.57 5.33,1.57 2.95,0 7.17,-0.99 12.73,-3.02l2.65 24.53c-7.33,3.15 -15.61,4.72 -24.89,4.72 -5.67,0 -10.77,-0.96 -15.33,-2.87 -4.57,-1.92 -7.9,-4.41 -10.01,-7.44 -2.15,-3.07 -3.61,-7.17 -4.45,-12.39 -0.65,-3.68 -1,-11.12 -1,-22.35l0 -52.26 -14.49 0 0 -25.08 14.49 0 0 -23.69 31.52 -18.64 0 42.33 21.63 0z"/>
  <path id="_4" class="fil1" d="M1197.93 1642.33l0 -29.22 31.52 0 0 29.22 -31.52 0zm0 135.5l0 -119.4 31.52 0 0 119.4 -31.52 0z"/>
  <path id="_5" class="fil1" d="M1316.38 1658.43l0 25.08 -21.63 0 0 48.35c0,9.81 0.19,15.53 0.61,17.14 0.43,1.61 1.35,2.95 2.84,4.02 1.46,1.04 3.22,1.57 5.33,1.57 2.95,0 7.17,-0.99 12.73,-3.02l2.65 24.53c-7.33,3.15 -15.61,4.72 -24.89,4.72 -5.67,0 -10.77,-0.96 -15.33,-2.87 -4.57,-1.92 -7.9,-4.41 -10.01,-7.44 -2.15,-3.07 -3.61,-7.17 -4.45,-12.39 -0.65,-3.68 -1,-11.12 -1,-22.35l0 -52.26 -14.49 0 0 -25.08 14.49 0 0 -23.69 31.52 -18.64 0 42.33 21.63 0z"/>
  <path id="_6" class="fil1" d="M1417.37 1777.83l0 -17.87c-4.37,6.37 -10.08,11.43 -17.18,15.22 -7.09,3.76 -14.57,5.64 -22.43,5.64 -8.05,0 -15.26,-1.76 -21.62,-5.29 -6.4,-3.53 -11,-8.51 -13.84,-14.88 -2.88,-6.4 -4.3,-15.22 -4.3,-26.49l0 -75.73 31.52 0 0 54.99c0,16.83 0.58,27.1 1.76,30.9 1.15,3.8 3.26,6.82 6.37,9.01 3.07,2.22 6.98,3.34 11.73,3.34 5.41,0 10.24,-1.5 14.53,-4.45 4.3,-2.95 7.21,-6.64 8.78,-11.04 1.58,-4.41 2.38,-15.15 2.38,-32.29l0 -50.46 31.52 0 0 119.4 -29.22 0z"/>
  <path id="_7" class="fil1" d="M1533.51 1658.43l0 25.08 -21.63 0 0 48.35c0,9.81 0.19,15.53 0.61,17.14 0.43,1.61 1.35,2.95 2.84,4.02 1.46,1.04 3.22,1.57 5.33,1.57 2.95,0 7.17,-0.99 12.73,-3.02l2.65 24.53c-7.33,3.15 -15.61,4.72 -24.89,4.72 -5.67,0 -10.77,-0.96 -15.33,-2.87 -4.57,-1.92 -7.9,-4.41 -10.01,-7.44 -2.15,-3.07 -3.61,-7.17 -4.45,-12.39 -0.65,-3.68 -1,-11.12 -1,-22.35l0 -52.26 -14.49 0 0 -25.08 14.49 0 0 -23.69 31.52 -18.64 0 42.33 21.63 0z"/>
  <path id="_8" class="fil1" d="M1548.23 1716.68c0,-10.51 2.57,-20.67 7.75,-30.49 5.17,-9.85 12.5,-17.33 21.97,-22.5 9.47,-5.18 20.01,-7.79 31.71,-7.79 18.05,0 32.82,5.87 44.36,17.6 11.54,11.77 17.29,26.57 17.29,44.52 0,18.09 -5.83,33.09 -17.45,44.97 -11.65,11.89 -26.3,17.83 -43.97,17.83 -10.93,0 -21.36,-2.49 -31.29,-7.44 -9.89,-4.94 -17.45,-12.19 -22.62,-21.78 -5.18,-9.54 -7.75,-21.2 -7.75,-34.92zm32.44 1.68c0,11.85 2.8,20.94 8.4,27.22 5.63,6.33 12.53,9.48 20.78,9.48 8.2,0 15.1,-3.15 20.66,-9.48 5.56,-6.28 8.36,-15.45 8.36,-27.45 0,-11.69 -2.8,-20.7 -8.36,-26.99 -5.56,-6.33 -12.46,-9.47 -20.66,-9.47 -8.25,0 -15.15,3.14 -20.78,9.47 -5.6,6.29 -8.4,15.37 -8.4,27.22z"/>
  <polygon id="_9" class="fil1" points="1797.3,1777.83 1797.3,1640.95 1748.53,1640.95 1748.53,1613.11 1879.2,1613.11 1879.2,1640.95 1830.66,1640.95 1830.66,1777.83 "/>
  <path id="_10" class="fil1" d="M1952.51 1740.1l31.52 5.29c-4.03,11.54 -10.43,20.32 -19.14,26.38 -8.74,6.02 -19.67,9.05 -32.74,9.05 -20.74,0 -36.12,-6.79 -46.05,-20.36 -7.86,-10.89 -11.81,-24.61 -11.81,-41.22 0,-19.78 5.18,-35.31 15.49,-46.5 10.32,-11.24 23.39,-16.84 39.19,-16.84 17.71,0 31.71,5.87 41.98,17.6 10.24,11.73 15.15,29.72 14.69,53.95l-78.91 0c0.23,9.35 2.76,16.64 7.63,21.85 4.83,5.22 10.89,7.83 18.1,7.83 4.94,0 9.08,-1.35 12.42,-4.03 3.37,-2.68 5.9,-7.02 7.63,-13zm1.84 -31.98c-0.23,-9.16 -2.57,-16.14 -7.06,-20.89 -4.48,-4.79 -9.93,-7.17 -16.37,-7.17 -6.86,0 -12.54,2.53 -17.02,7.55 -4.49,5.02 -6.67,11.89 -6.6,20.51l47.05 0z"/>
  <path id="_11" class="fil1" d="M2115.43 1693.86l-31.06 5.52c-1.04,-6.17 -3.41,-10.81 -7.13,-13.95 -3.72,-3.11 -8.51,-4.68 -14.42,-4.68 -7.86,0 -14.15,2.72 -18.82,8.17 -4.68,5.44 -7.02,14.53 -7.02,27.29 0,14.19 2.38,24.2 7.13,30.06 4.76,5.87 11.12,8.79 19.09,8.79 5.99,0 10.89,-1.73 14.69,-5.14 3.83,-3.42 6.52,-9.28 8.09,-17.64l31.06 5.29c-3.22,14.26 -9.4,25.04 -18.52,32.32 -9.13,7.29 -21.36,10.93 -36.73,10.93 -17.41,0 -31.33,-5.52 -41.68,-16.52 -10.39,-11.05 -15.57,-26.31 -15.57,-45.82 0,-19.75 5.22,-35.09 15.61,-46.09 10.39,-11 24.46,-16.49 42.21,-16.49 14.49,0 26.04,3.15 34.62,9.4 8.55,6.25 14.69,15.76 18.45,28.56z"/>
  <path id="_12" class="fil1" d="M2247.98 1777.83l-31.52 0 0 -60.85c0,-12.88 -0.69,-21.2 -2.03,-24.96 -1.38,-3.79 -3.57,-6.71 -6.63,-8.82 -3.07,-2.11 -6.75,-3.14 -11.05,-3.14 -5.52,0 -10.46,1.49 -14.84,4.48 -4.4,3 -7.4,6.98 -9.01,11.89 -1.64,4.95 -2.45,14.07 -2.45,27.41l0 53.99 -31.52 0 0 -119.4 29.22 0 0 17.53c10.47,-13.39 23.62,-20.06 39.53,-20.06 6.98,0 13.38,1.27 19.17,3.76 5.83,2.53 10.2,5.71 13.15,9.59 2.99,3.91 5.06,8.32 6.21,13.26 1.19,4.95 1.77,12 1.77,21.21l0 74.11z"/>
  <path id="_13" class="fil1" d="M2272.55 1716.68c0,-10.51 2.57,-20.67 7.75,-30.49 5.17,-9.85 12.5,-17.33 21.97,-22.5 9.47,-5.18 20.01,-7.79 31.71,-7.79 18.05,0 32.82,5.87 44.36,17.6 11.54,11.77 17.29,26.57 17.29,44.52 0,18.09 -5.83,33.09 -17.45,44.97 -11.65,11.89 -26.3,17.83 -43.97,17.83 -10.93,0 -21.36,-2.49 -31.29,-7.44 -9.89,-4.94 -17.45,-12.19 -22.62,-21.78 -5.18,-9.54 -7.75,-21.2 -7.75,-34.92zm32.44 1.68c0,11.85 2.8,20.94 8.4,27.22 5.63,6.33 12.53,9.48 20.78,9.48 8.2,0 15.1,-3.15 20.66,-9.48 5.56,-6.28 8.36,-15.45 8.36,-27.45 0,-11.69 -2.8,-20.7 -8.36,-26.99 -5.56,-6.33 -12.46,-9.47 -20.66,-9.47 -8.25,0 -15.15,3.14 -20.78,9.47 -5.6,6.29 -8.4,15.37 -8.4,27.22z"/>
  <polygon id="_14" class="fil1" points="2420.43,1777.83 2420.43,1613.11 2451.95,1613.11 2451.95,1777.83 "/>
  <path id="_15" class="fil1" d="M2476.99 1716.68c0,-10.51 2.57,-20.67 7.75,-30.49 5.17,-9.85 12.5,-17.33 21.97,-22.5 9.47,-5.18 20.01,-7.79 31.71,-7.79 18.05,0 32.82,5.87 44.36,17.6 11.54,11.77 17.29,26.57 17.29,44.52 0,18.09 -5.83,33.09 -17.45,44.97 -11.65,11.89 -26.3,17.83 -43.97,17.83 -10.93,0 -21.36,-2.49 -31.29,-7.44 -9.89,-4.94 -17.45,-12.19 -22.62,-21.78 -5.18,-9.54 -7.75,-21.2 -7.75,-34.92zm32.44 1.68c0,11.85 2.8,20.94 8.4,27.22 5.63,6.33 12.53,9.48 20.78,9.48 8.2,0 15.1,-3.15 20.66,-9.48 5.56,-6.28 8.36,-15.45 8.36,-27.45 0,-11.69 -2.8,-20.7 -8.36,-26.99 -5.56,-6.33 -12.46,-9.47 -20.66,-9.47 -8.25,0 -15.15,3.14 -20.78,9.47 -5.6,6.29 -8.4,15.37 -8.4,27.22zm14.72 -75.34l15.65 -33.59 35.19 0 -31.05 33.59 -19.79 0z"/>
  <path id="_16" class="fil1" d="M2621.88 1785.42l36.12 4.37c0.61,4.26 1.99,7.17 4.14,8.78 3.03,2.26 7.75,3.42 14.19,3.42 8.24,0 14.41,-1.23 18.56,-3.72 2.76,-1.65 4.86,-4.3 6.28,-7.98 0.96,-2.61 1.46,-7.48 1.46,-14.49l0.15 -17.45c-9.5,13 -21.47,19.48 -35.88,19.48 -16.03,0 -28.76,-6.79 -38.12,-20.32 -7.36,-10.7 -11.04,-24.04 -11.04,-39.95 0,-20.02 4.83,-35.28 14.46,-45.82 9.62,-10.55 21.62,-15.84 35.96,-15.84 14.76,0 26.96,6.48 36.54,19.44l0 -16.91 29.45 0 0 107.05c0,14.08 -1.15,24.62 -3.49,31.56 -2.3,6.98 -5.56,12.42 -9.78,16.41 -4.18,3.95 -9.78,7.09 -16.79,9.32 -7.02,2.26 -15.88,3.37 -26.57,3.37 -20.25,0 -34.59,-3.49 -43.06,-10.43 -8.47,-6.98 -12.69,-15.76 -12.69,-26.45 0,-1.04 0.04,-2.34 0.11,-3.84zm28.3 -69.7c0,12.65 2.45,21.89 7.32,27.76 4.91,5.86 10.97,8.81 18.14,8.81 7.67,0 14.18,-3.02 19.48,-9.04 5.33,-6.02 7.97,-14.92 7.97,-26.73 0,-12.34 -2.53,-21.51 -7.63,-27.49 -5.06,-5.98 -11.5,-8.97 -19.29,-8.97 -7.55,0 -13.76,2.95 -18.67,8.82 -4.87,5.86 -7.32,14.8 -7.32,26.84z"/>
  <path id="_17" class="fil1" d="M2765.39 1642.33l0 -29.22 31.52 0 0 29.22 -31.52 0zm0 135.5l0 -119.4 31.52 0 0 119.4 -31.52 0z"/>
  <path id="_18" class="fil1" d="M2933.3 1693.86l-31.06 5.52c-1.04,-6.17 -3.41,-10.81 -7.13,-13.95 -3.72,-3.11 -8.51,-4.68 -14.42,-4.68 -7.86,0 -14.15,2.72 -18.82,8.17 -4.68,5.44 -7.02,14.53 -7.02,27.29 0,14.19 2.38,24.2 7.13,30.06 4.76,5.87 11.12,8.79 19.09,8.79 5.99,0 10.89,-1.73 14.69,-5.14 3.83,-3.42 6.52,-9.28 8.09,-17.64l31.06 5.29c-3.22,14.26 -9.4,25.04 -18.52,32.32 -9.13,7.29 -21.36,10.93 -36.73,10.93 -17.41,0 -31.33,-5.52 -41.68,-16.52 -10.39,-11.05 -15.57,-26.31 -15.57,-45.82 0,-19.75 5.22,-35.09 15.61,-46.09 10.39,-11 24.46,-16.49 42.21,-16.49 14.49,0 26.04,3.15 34.62,9.4 8.55,6.25 14.69,15.76 18.45,28.56z"/>
  <path id="_19" class="fil1" d="M2949.9 1716.68c0,-10.51 2.57,-20.67 7.75,-30.49 5.17,-9.85 12.5,-17.33 21.97,-22.5 9.47,-5.18 20.01,-7.79 31.71,-7.79 18.05,0 32.82,5.87 44.36,17.6 11.54,11.77 17.29,26.57 17.29,44.52 0,18.09 -5.83,33.09 -17.45,44.97 -11.65,11.89 -26.3,17.83 -43.97,17.83 -10.93,0 -21.36,-2.49 -31.29,-7.44 -9.89,-4.94 -17.45,-12.19 -22.62,-21.78 -5.18,-9.54 -7.75,-21.2 -7.75,-34.92zm32.44 1.68c0,11.85 2.8,20.94 8.4,27.22 5.63,6.33 12.53,9.48 20.78,9.48 8.2,0 15.1,-3.15 20.66,-9.48 5.56,-6.28 8.36,-15.45 8.36,-27.45 0,-11.69 -2.8,-20.7 -8.36,-26.99 -5.56,-6.33 -12.46,-9.47 -20.66,-9.47 -8.25,0 -15.15,3.14 -20.78,9.47 -5.6,6.29 -8.4,15.37 -8.4,27.22z"/>
  <path id="_20" class="fil1" d="M3161.93 1613.11l60.66 0c13.69,0 24.12,1.04 31.29,3.15 9.62,2.84 17.9,7.9 24.77,15.18 6.9,7.25 12.11,16.14 15.72,26.69 3.56,10.5 5.36,23.5 5.36,38.91 0,13.58 -1.68,25.23 -5.06,35.05 -4.1,12 -9.97,21.7 -17.6,29.1 -5.75,5.64 -13.53,10.01 -23.31,13.15 -7.32,2.34 -17.1,3.49 -29.37,3.49l-62.46 0 0 -164.72zm33.36 27.84l0 109.04 24.73 0c9.24,0 15.91,-0.53 20.02,-1.57 5.4,-1.34 9.85,-3.64 13.38,-6.86 3.56,-3.22 6.44,-8.51 8.66,-15.87 2.26,-7.37 3.38,-17.45 3.38,-30.18 0,-12.73 -1.12,-22.47 -3.38,-29.29 -2.22,-6.83 -5.37,-12.12 -9.39,-15.95 -4.03,-3.8 -9.13,-6.41 -15.34,-7.75 -4.6,-1.03 -13.69,-1.57 -27.18,-1.57l-14.88 0z"/>
  <path id="_21" class="fil1" d="M3396.85 1740.1l31.52 5.29c-4.03,11.54 -10.43,20.32 -19.14,26.38 -8.74,6.02 -19.67,9.05 -32.74,9.05 -20.74,0 -36.12,-6.79 -46.05,-20.36 -7.86,-10.89 -11.81,-24.61 -11.81,-41.22 0,-19.78 5.18,-35.31 15.49,-46.5 10.32,-11.24 23.39,-16.84 39.19,-16.84 17.71,0 31.71,5.87 41.98,17.6 10.24,11.73 15.15,29.72 14.69,53.95l-78.91 0c0.23,9.35 2.76,16.64 7.63,21.85 4.83,5.22 10.89,7.83 18.1,7.83 4.94,0 9.08,-1.35 12.42,-4.03 3.37,-2.68 5.9,-7.02 7.63,-13zm1.84 -31.98c-0.23,-9.16 -2.57,-16.14 -7.06,-20.89 -4.48,-4.79 -9.93,-7.17 -16.37,-7.17 -6.86,0 -12.54,2.53 -17.02,7.55 -4.49,5.02 -6.67,11.89 -6.6,20.51l47.05 0z"/>
  <polygon id="_22" class="fil1" points="789.16,2034.83 789.16,1870.11 911.09,1870.11 911.09,1897.95 822.52,1897.95 822.52,1934.53 904.88,1934.53 904.88,1962.36 822.52,1962.36 822.52,2006.99 914.31,2006.99 914.31,2034.83 "/>
  <path id="_23" class="fil1" d="M1050.96 2034.83l-31.52 0 0 -60.85c0,-12.88 -0.69,-21.2 -2.03,-24.96 -1.38,-3.79 -3.57,-6.71 -6.63,-8.82 -3.07,-2.11 -6.75,-3.14 -11.05,-3.14 -5.52,0 -10.46,1.49 -14.84,4.48 -4.4,3 -7.4,6.98 -9.01,11.89 -1.64,4.95 -2.45,14.07 -2.45,27.41l0 53.99 -31.52 0 0 -119.4 29.22 0 0 17.53c10.47,-13.39 23.62,-20.06 39.53,-20.06 6.98,0 13.38,1.27 19.17,3.76 5.83,2.53 10.2,5.71 13.15,9.59 2.99,3.91 5.06,8.32 6.21,13.26 1.19,4.95 1.77,12 1.77,21.21l0 74.11z"/>
  <path id="_24" class="fil1" d="M1071.62 2001.24l31.75 -4.83c1.34,6.1 4.06,10.74 8.2,13.88 4.11,3.18 9.9,4.76 17.3,4.76 8.16,0 14.3,-1.5 18.44,-4.49 2.76,-2.11 4.14,-4.95 4.14,-8.47 0,-2.38 -0.77,-4.37 -2.26,-5.95 -1.58,-1.49 -5.1,-2.91 -10.55,-4.18 -25.49,-5.63 -41.64,-10.77 -48.46,-15.41 -9.47,-6.48 -14.19,-15.45 -14.19,-26.92 0,-10.39 4.1,-19.09 12.27,-26.14 8.17,-7.06 20.82,-10.59 37.96,-10.59 16.33,0 28.49,2.69 36.42,8.02 7.94,5.36 13.42,13.26 16.41,23.73l-29.67 5.52c-1.27,-4.68 -3.72,-8.28 -7.29,-10.77 -3.56,-2.49 -8.66,-3.72 -15.3,-3.72 -8.35,0 -14.33,1.15 -17.98,3.49 -2.41,1.65 -3.6,3.79 -3.6,6.4 0,2.26 1.03,4.18 3.14,5.75 2.88,2.11 12.73,5.06 29.6,8.9 16.87,3.83 28.64,8.51 35.31,14.07 6.64,5.6 9.94,13.46 9.94,23.5 0,10.93 -4.57,20.36 -13.73,28.22 -9.13,7.86 -22.66,11.81 -40.6,11.81 -16.26,0 -29.14,-3.3 -38.65,-9.85 -9.47,-6.56 -15.68,-15.45 -18.6,-26.73z"/>
  <path id="_25" class="fil1" d="M1210.84 1899.33l0 -29.22 31.52 0 0 29.22 -31.52 0zm0 135.5l0 -119.4 31.52 0 0 119.4 -31.52 0z"/>
  <path id="_26" class="fil1" d="M1383.35 2034.83l-31.52 0 0 -60.85c0,-12.88 -0.69,-21.2 -2.03,-24.96 -1.38,-3.79 -3.57,-6.71 -6.63,-8.82 -3.07,-2.11 -6.75,-3.14 -11.05,-3.14 -5.52,0 -10.46,1.49 -14.84,4.48 -4.4,3 -7.4,6.98 -9.01,11.89 -1.64,4.95 -2.45,14.07 -2.45,27.41l0 53.99 -31.52 0 0 -119.4 29.22 0 0 17.53c10.47,-13.39 23.62,-20.06 39.53,-20.06 6.98,0 13.38,1.27 19.17,3.76 5.83,2.53 10.2,5.71 13.15,9.59 2.99,3.91 5.06,8.32 6.21,13.26 1.19,4.95 1.77,12 1.77,21.21l0 74.11z"/>
  <path id="_27" class="fil1" d="M1407.92 1973.68c0,-10.51 2.57,-20.67 7.75,-30.49 5.17,-9.85 12.5,-17.33 21.97,-22.5 9.47,-5.18 20.01,-7.79 31.71,-7.79 18.05,0 32.82,5.87 44.36,17.6 11.54,11.77 17.29,26.57 17.29,44.52 0,18.09 -5.83,33.09 -17.45,44.97 -11.65,11.89 -26.3,17.83 -43.97,17.83 -10.93,0 -21.36,-2.49 -31.29,-7.44 -9.89,-4.94 -17.45,-12.19 -22.62,-21.78 -5.18,-9.54 -7.75,-21.2 -7.75,-34.92zm32.44 1.68c0,11.85 2.8,20.94 8.4,27.22 5.63,6.33 12.53,9.48 20.78,9.48 8.2,0 15.1,-3.15 20.66,-9.48 5.56,-6.28 8.36,-15.45 8.36,-27.45 0,-11.69 -2.8,-20.7 -8.36,-26.99 -5.56,-6.33 -12.46,-9.47 -20.66,-9.47 -8.25,0 -15.15,3.14 -20.78,9.47 -5.6,6.29 -8.4,15.37 -8.4,27.22z"/>
  <path id="_28" class="fil1" d="M1619.95 2034.83l0 -164.72 53.34 0c20.2,0 33.35,0.81 39.49,2.46 9.43,2.49 17.33,7.86 23.69,16.14 6.37,8.28 9.55,18.98 9.55,32.09 0,10.12 -1.84,18.6 -5.48,25.5 -3.68,6.9 -8.32,12.31 -13.96,16.26 -5.63,3.91 -11.39,6.51 -17.21,7.78 -7.94,1.57 -19.4,2.38 -34.43,2.38l-21.63 0 0 62.11 -33.36 0zm33.36 -136.88l0 46.93 18.14 0c13.07,0 21.77,-0.88 26.18,-2.61 4.41,-1.72 7.86,-4.41 10.36,-8.13 2.49,-3.68 3.75,-7.93 3.75,-12.84 0,-6.02 -1.76,-10.97 -5.25,-14.88 -3.53,-3.91 -7.94,-6.36 -13.34,-7.36 -3.95,-0.73 -11.89,-1.11 -23.85,-1.11l-15.99 0z"/>
  <path id="_29" class="fil1" d="M1803.3 2034.83l-31.52 0 0 -119.4 29.22 0 0 16.95c5.02,-8.01 9.55,-13.27 13.57,-15.76 4.03,-2.49 8.59,-3.72 13.69,-3.72 7.21,0 14.15,2 20.82,5.95l-9.78 27.53c-5.33,-3.45 -10.27,-5.18 -14.84,-5.18 -4.44,0 -8.2,1.23 -11.27,3.64 -3.07,2.46 -5.48,6.83 -7.24,13.19 -1.77,6.37 -2.65,19.71 -2.65,39.99l0 36.81z"/>
  <path id="_30" class="fil1" d="M1855.33 1973.68c0,-10.51 2.57,-20.67 7.75,-30.49 5.17,-9.85 12.5,-17.33 21.97,-22.5 9.47,-5.18 20.01,-7.79 31.71,-7.79 18.05,0 32.82,5.87 44.36,17.6 11.54,11.77 17.29,26.57 17.29,44.52 0,18.09 -5.83,33.09 -17.45,44.97 -11.65,11.89 -26.3,17.83 -43.97,17.83 -10.93,0 -21.36,-2.49 -31.29,-7.44 -9.89,-4.94 -17.45,-12.19 -22.62,-21.78 -5.18,-9.54 -7.75,-21.2 -7.75,-34.92zm32.44 1.68c0,11.85 2.8,20.94 8.4,27.22 5.63,6.33 12.53,9.48 20.78,9.48 8.2,0 15.1,-3.15 20.66,-9.48 5.56,-6.28 8.36,-15.45 8.36,-27.45 0,-11.69 -2.8,-20.7 -8.36,-26.99 -5.56,-6.33 -12.46,-9.47 -20.66,-9.47 -8.25,0 -15.15,3.14 -20.78,9.47 -5.6,6.29 -8.4,15.37 -8.4,27.22z"/>
  <path id="_31" class="fil1" d="M1990.1 1915.43l17.48 0 0 -9.01c0,-10.04 1.08,-17.56 3.23,-22.5 2.14,-4.99 6.09,-9.01 11.84,-12.12 5.79,-3.1 13.08,-4.68 21.9,-4.68 9.01,0 17.86,1.38 26.53,4.14l-4.03 22.09c-5.14,-1.38 -10.08,-2.07 -14.84,-2.07 -4.67,0 -8.01,1.07 -10.04,3.22 -2.03,2.15 -3.07,6.29 -3.07,12.42l0 8.51 23.7 0 0 24.85 -23.7 0 0 94.55 -31.52 0 0 -94.55 -17.48 0 0 -24.85zm89.26 -16.1l0 -29.22 31.52 0 0 29.22 -31.52 0zm0 135.5l0 -119.4 31.52 0 0 119.4 -31.52 0z"/>
  <path id="_32" class="fil1" d="M2132.46 2001.24l31.75 -4.83c1.34,6.1 4.06,10.74 8.2,13.88 4.11,3.18 9.9,4.76 17.3,4.76 8.16,0 14.3,-1.5 18.44,-4.49 2.76,-2.11 4.14,-4.95 4.14,-8.47 0,-2.38 -0.77,-4.37 -2.26,-5.95 -1.58,-1.49 -5.1,-2.91 -10.55,-4.18 -25.49,-5.63 -41.64,-10.77 -48.46,-15.41 -9.47,-6.48 -14.19,-15.45 -14.19,-26.92 0,-10.39 4.1,-19.09 12.27,-26.14 8.17,-7.06 20.82,-10.59 37.96,-10.59 16.33,0 28.49,2.69 36.42,8.02 7.94,5.36 13.42,13.26 16.41,23.73l-29.67 5.52c-1.27,-4.68 -3.72,-8.28 -7.29,-10.77 -3.56,-2.49 -8.66,-3.72 -15.3,-3.72 -8.35,0 -14.33,1.15 -17.98,3.49 -2.41,1.65 -3.6,3.79 -3.6,6.4 0,2.26 1.03,4.18 3.14,5.75 2.88,2.11 12.73,5.06 29.6,8.9 16.87,3.83 28.64,8.51 35.31,14.07 6.64,5.6 9.94,13.46 9.94,23.5 0,10.93 -4.57,20.36 -13.73,28.22 -9.13,7.86 -22.66,11.81 -40.6,11.81 -16.26,0 -29.14,-3.3 -38.65,-9.85 -9.47,-6.56 -15.68,-15.45 -18.6,-26.73z"/>
  <path id="_33" class="fil1" d="M2260.41 2001.24l31.75 -4.83c1.34,6.1 4.06,10.74 8.2,13.88 4.11,3.18 9.9,4.76 17.3,4.76 8.16,0 14.3,-1.5 18.44,-4.49 2.76,-2.11 4.14,-4.95 4.14,-8.47 0,-2.38 -0.77,-4.37 -2.26,-5.95 -1.58,-1.49 -5.1,-2.91 -10.55,-4.18 -25.49,-5.63 -41.64,-10.77 -48.46,-15.41 -9.47,-6.48 -14.19,-15.45 -14.19,-26.92 0,-10.39 4.1,-19.09 12.27,-26.14 8.17,-7.06 20.82,-10.59 37.96,-10.59 16.33,0 28.49,2.69 36.42,8.02 7.94,5.36 13.42,13.26 16.41,23.73l-29.67 5.52c-1.27,-4.68 -3.72,-8.28 -7.29,-10.77 -3.56,-2.49 -8.66,-3.72 -15.3,-3.72 -8.35,0 -14.33,1.15 -17.98,3.49 -2.41,1.65 -3.6,3.79 -3.6,6.4 0,2.26 1.03,4.18 3.14,5.75 2.88,2.11 12.73,5.06 29.6,8.9 16.87,3.83 28.64,8.51 35.31,14.07 6.64,5.6 9.94,13.46 9.94,23.5 0,10.93 -4.57,20.36 -13.73,28.22 -9.13,7.86 -22.66,11.81 -40.6,11.81 -16.26,0 -29.14,-3.3 -38.65,-9.85 -9.47,-6.56 -15.68,-15.45 -18.6,-26.73z"/>
  <path id="_34" class="fil1" d="M2399.63 1899.33l0 -29.22 31.52 0 0 29.22 -31.52 0zm0 135.5l0 -119.4 31.52 0 0 119.4 -31.52 0z"/>
  <path id="_35" class="fil1" d="M2456.19 1973.68c0,-10.51 2.57,-20.67 7.75,-30.49 5.17,-9.85 12.5,-17.33 21.97,-22.5 9.47,-5.18 20.01,-7.79 31.71,-7.79 18.05,0 32.82,5.87 44.36,17.6 11.54,11.77 17.29,26.57 17.29,44.52 0,18.09 -5.83,33.09 -17.45,44.97 -11.65,11.89 -26.3,17.83 -43.97,17.83 -10.93,0 -21.36,-2.49 -31.29,-7.44 -9.89,-4.94 -17.45,-12.19 -22.62,-21.78 -5.18,-9.54 -7.75,-21.2 -7.75,-34.92zm32.44 1.68c0,11.85 2.8,20.94 8.4,27.22 5.63,6.33 12.53,9.48 20.78,9.48 8.2,0 15.1,-3.15 20.66,-9.48 5.56,-6.28 8.36,-15.45 8.36,-27.45 0,-11.69 -2.8,-20.7 -8.36,-26.99 -5.56,-6.33 -12.46,-9.47 -20.66,-9.47 -8.25,0 -15.15,3.14 -20.78,9.47 -5.6,6.29 -8.4,15.37 -8.4,27.22z"/>
  <path id="_36" class="fil1" d="M2712.66 2034.83l-31.52 0 0 -60.85c0,-12.88 -0.69,-21.2 -2.03,-24.96 -1.38,-3.79 -3.57,-6.71 -6.63,-8.82 -3.07,-2.11 -6.75,-3.14 -11.05,-3.14 -5.52,0 -10.46,1.49 -14.84,4.48 -4.4,3 -7.4,6.98 -9.01,11.89 -1.64,4.95 -2.45,14.07 -2.45,27.41l0 53.99 -31.52 0 0 -119.4 29.22 0 0 17.53c10.47,-13.39 23.62,-20.06 39.53,-20.06 6.98,0 13.38,1.27 19.17,3.76 5.83,2.53 10.2,5.71 13.15,9.59 2.99,3.91 5.06,8.32 6.21,13.26 1.19,4.95 1.77,12 1.77,21.21l0 74.11z"/>
  <path id="_37" class="fil1" d="M2768.06 1952.24l-28.53 -5.06c3.22,-11.65 8.78,-20.28 16.64,-25.88 7.86,-5.6 19.56,-8.4 35.05,-8.4 14.07,0 24.57,1.65 31.48,4.99 6.86,3.33 11.73,7.55 14.53,12.69 2.8,5.14 4.21,14.53 4.21,28.26l-0.46 36.8c0,10.47 0.5,18.22 1.5,23.2 1,4.99 2.88,10.32 5.64,15.99l-31.29 0c-0.81,-2.07 -1.84,-5.14 -3.03,-9.2 -0.5,-1.88 -0.88,-3.11 -1.11,-3.68 -5.37,5.29 -11.12,9.24 -17.26,11.88 -6.13,2.65 -12.65,3.99 -19.59,3.99 -12.23,0 -21.89,-3.34 -28.95,-10.01 -7.05,-6.63 -10.58,-15.06 -10.58,-25.26 0,-6.71 1.61,-12.73 4.83,-18.02 3.22,-5.26 7.71,-9.32 13.54,-12.12 5.79,-2.8 14.15,-5.25 25.07,-7.36 14.73,-2.76 24.96,-5.37 30.64,-7.75l0 -3.18c0,-6.13 -1.5,-10.5 -4.49,-13.15 -3.03,-2.61 -8.7,-3.91 -17.02,-3.91 -5.64,0 -10.01,1.11 -13.15,3.37 -3.19,2.23 -5.72,6.18 -7.67,11.81zm42.33 25.54c-4.03,1.34 -10.43,2.95 -19.21,4.83 -8.74,1.88 -14.49,3.72 -17.18,5.48 -4.1,2.95 -6.17,6.63 -6.17,11.12 0,4.45 1.65,8.24 4.94,11.46 3.3,3.23 7.48,4.84 12.58,4.84 5.68,0 11.12,-1.88 16.3,-5.6 3.79,-2.88 6.32,-6.33 7.51,-10.47 0.81,-2.68 1.23,-7.82 1.23,-15.37l0 -6.29z"/>
  <polygon id="_38" class="fil1" points="2872.54,2034.83 2872.54,1870.11 2904.06,1870.11 2904.06,2034.83 "/>
  <path id="_39" class="fil1" d="M2936.46 1899.33l0 -29.22 31.52 0 0 29.22 -31.52 0zm0 135.5l0 -119.4 31.52 0 0 119.4 -31.52 0z"/>
  <path id="_40" class="fil1" d="M2987.5 2034.83l0 -24.85 44.67 -51.18c7.36,-8.4 12.77,-14.3 16.29,-17.83 -3.68,0.23 -8.51,0.38 -14.49,0.46l-42.1 0.23 0 -26.23 98.69 0 0 22.32 -45.59 52.53 -16.06 17.4c8.74,-0.46 14.19,-0.69 16.3,-0.69l48.8 0 0 27.84 -106.51 0z"/>
  <path id="_41" class="fil1" d="M3138.87 1952.24l-28.53 -5.06c3.22,-11.65 8.78,-20.28 16.64,-25.88 7.86,-5.6 19.56,-8.4 35.05,-8.4 14.07,0 24.57,1.65 31.48,4.99 6.86,3.33 11.73,7.55 14.53,12.69 2.8,5.14 4.21,14.53 4.21,28.26l-0.46 36.8c0,10.47 0.5,18.22 1.5,23.2 1,4.99 2.88,10.32 5.64,15.99l-31.29 0c-0.81,-2.07 -1.84,-5.14 -3.03,-9.2 -0.5,-1.88 -0.88,-3.11 -1.11,-3.68 -5.37,5.29 -11.12,9.24 -17.26,11.88 -6.13,2.65 -12.65,3.99 -19.59,3.99 -12.23,0 -21.89,-3.34 -28.95,-10.01 -7.05,-6.63 -10.58,-15.06 -10.58,-25.26 0,-6.71 1.61,-12.73 4.83,-18.02 3.22,-5.26 7.71,-9.32 13.54,-12.12 5.79,-2.8 14.15,-5.25 25.07,-7.36 14.73,-2.76 24.96,-5.37 30.64,-7.75l0 -3.18c0,-6.13 -1.5,-10.5 -4.49,-13.15 -3.03,-2.61 -8.7,-3.91 -17.02,-3.91 -5.64,0 -10.01,1.11 -13.15,3.37 -3.19,2.23 -5.72,6.18 -7.67,11.81zm42.33 25.54c-4.03,1.34 -10.43,2.95 -19.21,4.83 -8.74,1.88 -14.49,3.72 -17.18,5.48 -4.1,2.95 -6.17,6.63 -6.17,11.12 0,4.45 1.65,8.24 4.94,11.46 3.3,3.23 7.48,4.84 12.58,4.84 5.68,0 11.12,-1.88 16.3,-5.6 3.79,-2.88 6.32,-6.33 7.51,-10.47 0.81,-2.68 1.23,-7.82 1.23,-15.37l0 -6.29z"/>
  <path id="_42" class="fil1" d="M3351.94 2034.83l-31.52 0 0 -60.85c0,-12.88 -0.69,-21.2 -2.03,-24.96 -1.38,-3.79 -3.57,-6.71 -6.63,-8.82 -3.07,-2.11 -6.75,-3.14 -11.05,-3.14 -5.52,0 -10.46,1.49 -14.84,4.48 -4.4,3 -7.4,6.98 -9.01,11.89 -1.64,4.95 -2.45,14.07 -2.45,27.41l0 53.99 -31.52 0 0 -119.4 29.22 0 0 17.53c10.47,-13.39 23.62,-20.06 39.53,-20.06 6.98,0 13.38,1.27 19.17,3.76 5.83,2.53 10.2,5.71 13.15,9.59 2.99,3.91 5.06,8.32 6.21,13.26 1.19,4.95 1.77,12 1.77,21.21l0 74.11z"/>
  <path id="_43" class="fil1" d="M3438.4 1915.43l0 25.08 -21.63 0 0 48.35c0,9.81 0.19,15.53 0.61,17.14 0.43,1.61 1.35,2.95 2.84,4.02 1.46,1.04 3.22,1.57 5.33,1.57 2.95,0 7.17,-0.99 12.73,-3.02l2.65 24.53c-7.33,3.15 -15.61,4.72 -24.89,4.72 -5.67,0 -10.77,-0.96 -15.33,-2.87 -4.57,-1.92 -7.9,-4.41 -10.01,-7.44 -2.15,-3.07 -3.61,-7.17 -4.45,-12.39 -0.65,-3.68 -1,-11.12 -1,-22.35l0 -52.26 -14.49 0 0 -25.08 14.49 0 0 -23.69 31.52 -18.64 0 42.33 21.63 0z"/>
  <path id="_44" class="fil1" d="M3529.5 1997.1l31.52 5.29c-4.03,11.54 -10.43,20.32 -19.14,26.38 -8.74,6.02 -19.67,9.05 -32.74,9.05 -20.74,0 -36.12,-6.79 -46.05,-20.36 -7.86,-10.89 -11.81,-24.61 -11.81,-41.22 0,-19.78 5.18,-35.31 15.49,-46.5 10.32,-11.24 23.39,-16.84 39.19,-16.84 17.71,0 31.71,5.87 41.98,17.6 10.24,11.73 15.15,29.72 14.69,53.95l-78.91 0c0.23,9.35 2.76,16.64 7.63,21.85 4.83,5.22 10.89,7.83 18.1,7.83 4.94,0 9.08,-1.35 12.42,-4.03 3.37,-2.68 5.9,-7.02 7.63,-13zm1.84 -31.98c-0.23,-9.16 -2.57,-16.14 -7.06,-20.89 -4.48,-4.79 -9.93,-7.17 -16.37,-7.17 -6.86,0 -12.54,2.53 -17.02,7.55 -4.49,5.02 -6.67,11.89 -6.6,20.51l47.05 0z"/>
  <rect class="fil2" x="525.55" y="1860.03" width="143.93" height="152.4"/>
  <g id="_1805876173904">
   <path class="fil2" d="M217.98 1872.74c39.98,0 79.96,0 119.93,0 0,42.33 0,84.65 0,126.99 -39.97,0 -79.95,0 -119.93,0 0,-42.34 0,-84.66 0,-126.99z"/>
  </g>
  <rect class="fil2" x="13.31" y="1885.44" width="95.94" height="101.59"/>
  <rect class="fil2" x="525.55" y="1614.49" width="143.93" height="152.4"/>
  <g id="_1805876172656">
   <path class="fil2" d="M217.98 1627.2c39.98,0 79.96,0 119.93,0 0,42.33 0,84.65 0,126.99 -39.97,0 -79.95,0 -119.93,0 0,-42.34 0,-84.66 0,-126.99z"/>
  </g>
  <rect class="fil2" x="13.31" y="1639.9" width="95.94" height="101.59"/>
 </g>
</svg>
