<?xml version="1.0" encoding="UTF-8"?>
<!DOCTYPE svg PUBLIC "-//W3C//DTD SVG 1.1//EN" "http://www.w3.org/Graphics/SVG/1.1/DTD/svg11.dtd">
<!-- Creator: CorelDRAW 2021 (64 Bit) -->
<svg xmlns="http://www.w3.org/2000/svg" xml:space="preserve" width="77.7483mm" height="21.085mm" version="1.1" style="shape-rendering:geometricPrecision; text-rendering:geometricPrecision; image-rendering:optimizeQuality; fill-rule:evenodd; clip-rule:evenodd"
viewBox="0 0 7774.82 2108.5"
 xmlns:xlink="http://www.w3.org/1999/xlink"
 xmlns:xodm="http://www.corel.com/coreldraw/odm/2003">
 <defs>
  <style type="text/css">
   <![CDATA[
    .fil0 {fill:black;fill-rule:nonzero}
    .fil1 {fill:url(#id9)}
   ]]>
  </style>
   <clipPath id="id0" style="clip-rule:nonzero">
    <path d="M-0 2108.5c1.55,-351.28 5.05,-702.76 6.22,-1054.04 1.16,-351.26 0,-702.97 0,-1054.46 113.51,0 227.8,0 342.86,0 90.97,0 172.44,32.47 245.69,95.73 62.02,53.55 106.92,135.67 133.73,247.11 14.38,59.77 21.77,130.31 21.77,212.54 0,134.53 -26.88,243.75 -80.86,327.45 -22.98,35.63 -49.76,63.26 -80.08,83.29 50.53,22.98 94.29,71.38 129.06,145.07 23.54,49.86 39.75,114.9 50.54,195.03 5.52,41.1 8.22,87.08 7.77,138.53 -1.1,126.71 -20.85,235.7 -57.53,328.08 -28.62,72.07 -68.95,132.06 -120.51,180.07 -58.06,54.05 -115.91,84.96 -173.38,92.77 -142.34,19.37 -283.78,40.7 -425.28,62.83zm248.79 -346.85c31.87,-3.79 63.76,-7.85 95.63,-11.59 77.74,-9.12 130.96,-68.44 161.71,-178.59 10.46,-37.44 16.88,-80.12 17.11,-127.78 0.54,-112.79 -15.01,-194.04 -46.64,-243.53 -29.01,-45.38 -71.54,-66.23 -128.29,-61.78 -31.88,2.5 -63.76,5.06 -95.63,7.38 -0.78,102.69 -1.17,205.59 -1.55,308.05 -0.39,102.48 -2.34,205.16 -2.34,307.84zm4.66 -915.5c31.88,-1.9 63.76,-3.88 95.63,-5.7 71.53,-4.07 119.21,-53.29 143.06,-148.01 8.8,-34.94 13.22,-77.81 13.22,-128.83 0,-84.98 -15.53,-148.67 -45.87,-191.45 -27.97,-39.44 -65.31,-58.85 -110.41,-57.99 -31.87,0.61 -63.75,1.47 -95.63,2.11 0,88.35 0,176.69 0,265.04 0,88.14 0,176.48 0,264.83z"/>
   </clipPath>
   <clipPath id="id1" style="clip-rule:nonzero">
    <path d="M1230.75 1508.01c-20.21,151.81 -39.65,303.62 -58.31,455.43 -80.08,7.38 -160.16,15.39 -239.47,23.4 43.54,-334.19 90.11,-667.04 133.73,-998.37 43.44,-329.89 86.3,-658.7 129.84,-985.93 104.96,0 210.7,0 316.44,0 41.98,321.54 86.62,642.11 127.51,961.47 40.74,318.24 81.64,635.71 123.61,951.99 -80.85,5.69 -161.71,11.6 -241.79,17.92 -17.89,-146.96 -34.99,-294.13 -52.1,-441.52 -80.07,5.06 -160.16,10.13 -239.46,15.61zm122.84 -1059.74c-14.77,127.99 -28.77,256.18 -42.76,384.38 -13.99,128.19 -28.76,256.82 -42.76,385.44 55.98,-3.17 112.74,-6.12 169.49,-9.07 -13.99,-126.09 -28.01,-252.81 -41.98,-379.32 -14.01,-126.92 -27.99,-254.29 -41.99,-381.43z"/>
   </clipPath>
   <clipPath id="id2" style="clip-rule:nonzero">
    <path d="M2324.67 2.32c127.51,0 222.2,43.56 282.23,129.68 52.7,75.6 79.3,180.27 79.3,315.01 0,90.45 0,180.69 0,270.94 0,131.78 -41.2,243.95 -124.39,337.57 27.21,135.15 55.23,270.68 82.41,405.25 27.23,134.88 55.98,269.47 84.74,403.78 -82.41,2.95 -164.82,6.53 -247.24,10.33 -23.32,-116.18 -46.67,-233.19 -69.19,-349.8 -22.57,-116.8 -45.09,-233.83 -67.65,-351.07 -6.99,0.64 -14,0.63 -20.98,0.85 -45.1,1.46 -89.42,3.16 -133.73,4.64 -0.78,118.5 -1.56,236.99 -2.34,355.28 -0.77,118.29 -0.77,236.79 -0.77,355.07 -76.98,4 -153.16,8.64 -229.36,13.49 0.78,-316.69 3.11,-633.6 3.89,-950.29 0.77,-316.69 0,-633.82 0,-950.73 120.51,0 241.8,0 363.08,0zm136.84 451.64c0,-108.8 -43.55,-163.03 -131.4,-162.35 -46.65,0.36 -93.3,0.84 -139.16,1.26 0,100.79 0,201.57 0,302.36 0,100.79 0,201.37 0,302.15 45.86,-1.27 92.51,-2.41 139.16,-3.59 36.54,-0.92 67.7,-17.25 93.3,-49.75 25.71,-32.64 38.1,-71.49 38.1,-116.39 0,-91.3 0,-182.39 0,-273.69z"/>
   </clipPath>
   <clipPath id="id3" style="clip-rule:nonzero">
    <path d="M3291.86 2.32c128.29,0 222.95,42.95 283.01,127.99 52.66,74.57 79.3,178.17 79.3,311 0,89.2 0,178.38 0,267.57 0,130.1 -41.2,240.37 -124.4,331.24 27.22,133.89 55.59,267.86 83.2,401.46 27.58,133.55 55.97,267.36 84.74,400.83 -82.42,0.63 -164.83,1.69 -247.24,2.53 -23.32,-114.91 -46.68,-230.67 -69.2,-345.79 -22.56,-115.33 -45.87,-230.88 -68.42,-346.43 -6.99,0.42 -14,0.55 -20.99,0.63 -45.09,0.54 -89.41,1.27 -133.73,1.9 -0.78,116.18 -0.78,232.16 -1.55,348.12 -0.77,115.75 -0.78,231.93 -0.78,347.69 -76.97,1.89 -153.16,4.21 -229.36,6.53 0.78,-308.89 2.73,-618.21 3.12,-927.31 0.38,-309.11 0,-618.64 0,-927.96 120.5,0 241.01,0 362.3,0zm137.61 444.26c0,-107.11 -43.54,-160.51 -131.39,-160.24 -46.65,0.14 -93.3,0.42 -139.17,0.42 0,98.89 0,197.56 0,296.24 0,98.68 0,197.36 0,296.04 45.87,-0.64 92.53,-1.01 139.17,-1.48 36.54,-0.36 67.23,-16.57 92.52,-47.86 26.01,-32.18 38.87,-69.58 38.87,-113.86 0,-89.83 0,-179.43 0,-269.26z"/>
   </clipPath>
   <clipPath id="id4" style="clip-rule:nonzero">
    <path d="M4179.74 1419.45c-19.44,141.27 -38.1,282.32 -56.76,422.96 -80.08,-0.42 -160.16,-0.63 -240.24,-1.05 42.76,-306.16 88.25,-612.47 131.39,-918.89 43.15,-306.52 87.08,-613.36 130.62,-920.15 104.96,0 209.92,0 315.66,0 41.98,307.84 85.94,616.27 127.51,924.58 41.61,308.63 83.19,618 125.95,927.74 -80.86,-2.53 -161.72,-4.43 -241.8,-6.33 -17.88,-141.9 -35.76,-284.01 -52.87,-425.91 -80.08,-1.27 -160.16,-2.11 -239.46,-2.95zm121.29 -994.79c-14.78,120.82 -28.77,241.64 -42.76,362.24 -14,120.6 -28,241.21 -42.77,361.81 56.76,0.43 113.51,0.85 170.27,1.48 -13.99,-121.03 -28.78,-242.06 -42.76,-362.66 -14,-120.81 -27.99,-242.05 -41.98,-362.87z"/>
   </clipPath>
   <clipPath id="id5" style="clip-rule:nonzero">
    <path d="M5136.82 1870.24c-76.97,-3.16 -153.17,-6.11 -229.36,-9.06 0,-309.95 1.18,-620.32 1.56,-930.27 0.38,-310.16 0,-620.54 0,-930.91 217.69,0 436.17,0 654.63,0 0,95.94 0,191.45 0,286.97 -142.27,-1.26 -283.77,-2.32 -425.28,-3.37 0,85.18 0,170.15 0,255.13 0,84.96 0,169.94 0,254.92 103.41,2.1 206.82,4.21 310.22,6.53 0,95.3 0,190.4 0,285.71 -103.4,-3.17 -206.81,-6.12 -310.22,-8.86 -0.77,132.2 -0.39,264.41 -0.77,396.6 -0.39,132.2 -0.78,264.41 -0.78,396.61z"/>
   </clipPath>
   <clipPath id="id6" style="clip-rule:nonzero">
    <path d="M6347.36 1947.42c-209.14,-16.87 -418.28,-32.05 -626.65,-45.76 0,-316.28 1.17,-632.97 1.55,-949.45 0.38,-316.28 0,-633.19 0,-949.89 76.2,0 151.61,0 228.58,0 0,271.37 0,542.31 0,813.47 0,270.94 0,542.09 -0.77,813.03 132.17,8.23 264.34,16.87 397.29,25.94 0,97.61 0,195.24 0,292.66z"/>
   </clipPath>
   <clipPath id="id7" style="clip-rule:nonzero">
    <path d="M6735.32 1982.84c-76.97,-7.8 -153.93,-14.76 -230.13,-21.51 0,-326.18 0.39,-652.79 0.78,-979.19 0.38,-326.39 0,-653.21 0,-979.6 76.19,0 153.16,0 230.13,0 0,330.18 0.39,660.38 0,990.36 -0.38,329.97 -0.78,660.17 -0.78,989.94z"/>
   </clipPath>
   <clipPath id="id8" style="clip-rule:nonzero">
    <path d="M7774.82 2108.5c-82.42,-11.8 -164.83,-23.61 -246.46,-34.78 -29.54,-113.23 -58.99,-226.49 -88.64,-339.27 -29.44,-111.98 -59.09,-224.12 -88.62,-335.45 -30.33,105.84 -59.82,211.7 -89.42,316.9 -29.49,104.81 -59.09,209.38 -88.64,313.32 -82.41,-9.49 -164.82,-18.34 -246.46,-27.2 49.77,-162.56 99.64,-326.15 149.28,-490.64 49.87,-165.27 99.52,-331.04 150.06,-498.03 -50.54,-170.79 -100.13,-340.79 -150.06,-509.63 -49.58,-167.67 -99.51,-335.04 -149.28,-501.18 84.75,0 169.5,0 254.24,0 28,104.79 56.82,209.79 84.75,315 28.04,105.62 56.76,211.49 85.53,317.96 27.98,-104.57 56.03,-209.36 83.96,-314.58 28.03,-105.62 55.98,-211.69 84.75,-318.38 84.74,0 169.49,0 255.01,0 -50.53,174.15 -100.13,347.11 -150.05,518.48 -49.59,170.2 -99.52,339.67 -149.28,507.93 49.76,176.69 99.68,354.61 149.28,534.08 49.91,180.65 99.52,362.25 150.05,545.47z"/>
   </clipPath>
  <linearGradient id="id9" gradientUnits="objectBoundingBox" x1="50%" y1="99.9999%" x2="50%" y2="0%">
   <stop offset="0" style="stop-opacity:1; stop-color:#D7171E"/>
   <stop offset="1" style="stop-opacity:1; stop-color:#DB171F"/>
  </linearGradient>
 </defs>
 <g id="Camada_x0020_1">
  <metadata id="CorelCorpID_0Corel-Layer"/>
  <path class="fil0" d="M-0 2108.5c1.55,-351.28 5.05,-702.76 6.22,-1054.04 1.16,-351.26 0,-702.97 0,-1054.46 113.51,0 227.8,0 342.86,0 90.97,0 172.44,32.47 245.69,95.73 62.02,53.55 106.92,135.67 133.73,247.11 14.38,59.77 21.77,130.31 21.77,212.54 0,134.53 -26.88,243.75 -80.86,327.45 -22.98,35.63 -49.76,63.26 -80.08,83.29 50.53,22.98 94.29,71.38 129.06,145.07 23.54,49.86 39.75,114.9 50.54,195.03 5.52,41.1 8.22,87.08 7.77,138.53 -1.1,126.71 -20.85,235.7 -57.53,328.08 -28.62,72.07 -68.95,132.06 -120.51,180.07 -58.06,54.05 -115.91,84.96 -173.38,92.77 -142.34,19.37 -283.78,40.7 -425.28,62.83zm248.79 -346.85c31.87,-3.79 63.76,-7.85 95.63,-11.59 77.74,-9.12 130.96,-68.44 161.71,-178.59 10.46,-37.44 16.88,-80.12 17.11,-127.78 0.54,-112.79 -15.01,-194.04 -46.64,-243.53 -29.01,-45.38 -71.54,-66.23 -128.29,-61.78 -31.88,2.5 -63.76,5.06 -95.63,7.38 -0.78,102.69 -1.17,205.59 -1.55,308.05 -0.39,102.48 -2.34,205.16 -2.34,307.84zm4.66 -915.5c31.88,-1.9 63.76,-3.88 95.63,-5.7 71.53,-4.07 119.21,-53.29 143.06,-148.01 8.8,-34.94 13.22,-77.81 13.22,-128.83 0,-84.98 -15.53,-148.67 -45.87,-191.45 -27.97,-39.44 -65.31,-58.85 -110.41,-57.99 -31.87,0.61 -63.75,1.47 -95.63,2.11 0,88.35 0,176.69 0,265.04 0,88.14 0,176.48 0,264.83zm977.3 661.86c-20.21,151.81 -39.65,303.62 -58.31,455.43 -80.08,7.38 -160.16,15.39 -239.47,23.4 43.54,-334.19 90.11,-667.04 133.73,-998.37 43.44,-329.89 86.3,-658.7 129.84,-985.93 104.96,0 210.7,0 316.44,0 41.98,321.54 86.62,642.11 127.51,961.47 40.74,318.24 81.64,635.71 123.61,951.99 -80.85,5.69 -161.71,11.6 -241.79,17.92 -17.89,-146.96 -34.99,-294.13 -52.1,-441.52 -80.07,5.06 -160.16,10.13 -239.46,15.61zm122.84 -1059.74c-14.77,127.99 -28.77,256.18 -42.76,384.38 -13.99,128.19 -28.76,256.82 -42.76,385.44 55.98,-3.17 112.74,-6.12 169.49,-9.07 -13.99,-126.09 -28.01,-252.81 -41.98,-379.32 -14.01,-126.92 -27.99,-254.29 -41.99,-381.43zm971.08 -445.95c127.51,0 222.2,43.56 282.23,129.68 52.7,75.6 79.3,180.27 79.3,315.01 0,90.45 0,180.69 0,270.94 0,131.78 -41.2,243.95 -124.39,337.57 27.21,135.15 55.23,270.68 82.41,405.25 27.23,134.88 55.98,269.47 84.74,403.78 -82.41,2.95 -164.82,6.53 -247.24,10.33 -23.32,-116.18 -46.67,-233.19 -69.19,-349.8 -22.57,-116.8 -45.09,-233.83 -67.65,-351.07 -6.99,0.64 -14,0.63 -20.98,0.85 -45.1,1.46 -89.42,3.16 -133.73,4.64 -0.78,118.5 -1.56,236.99 -2.34,355.28 -0.77,118.29 -0.77,236.79 -0.77,355.07 -76.98,4 -153.16,8.64 -229.36,13.49 0.78,-316.69 3.11,-633.6 3.89,-950.29 0.77,-316.69 0,-633.82 0,-950.73 120.51,0 241.8,0 363.08,0zm136.84 451.64c0,-108.8 -43.55,-163.03 -131.4,-162.35 -46.65,0.36 -93.3,0.84 -139.16,1.26 0,100.79 0,201.57 0,302.36 0,100.79 0,201.37 0,302.15 45.86,-1.27 92.51,-2.41 139.16,-3.59 36.54,-0.92 67.7,-17.25 93.3,-49.75 25.71,-32.64 38.1,-71.49 38.1,-116.39 0,-91.3 0,-182.39 0,-273.69zm830.35 -451.64c128.29,0 222.95,42.95 283.01,127.99 52.66,74.57 79.3,178.17 79.3,311 0,89.2 0,178.38 0,267.57 0,130.1 -41.2,240.37 -124.4,331.24 27.22,133.89 55.59,267.86 83.2,401.46 27.58,133.55 55.97,267.36 84.74,400.83 -82.42,0.63 -164.83,1.69 -247.24,2.53 -23.32,-114.91 -46.68,-230.67 -69.2,-345.79 -22.56,-115.33 -45.87,-230.88 -68.42,-346.43 -6.99,0.42 -14,0.55 -20.99,0.63 -45.09,0.54 -89.41,1.27 -133.73,1.9 -0.78,116.18 -0.78,232.16 -1.55,348.12 -0.77,115.75 -0.78,231.93 -0.78,347.69 -76.97,1.89 -153.16,4.21 -229.36,6.53 0.78,-308.89 2.73,-618.21 3.12,-927.31 0.38,-309.11 0,-618.64 0,-927.96 120.5,0 241.01,0 362.3,0zm137.61 444.26c0,-107.11 -43.54,-160.51 -131.39,-160.24 -46.65,0.14 -93.3,0.42 -139.17,0.42 0,98.89 0,197.56 0,296.24 0,98.68 0,197.36 0,296.04 45.87,-0.64 92.53,-1.01 139.17,-1.48 36.54,-0.36 67.23,-16.57 92.52,-47.86 26.01,-32.18 38.87,-69.58 38.87,-113.86 0,-89.83 0,-179.43 0,-269.26zm750.28 972.87c-19.44,141.27 -38.1,282.32 -56.76,422.96 -80.08,-0.42 -160.16,-0.63 -240.24,-1.05 42.76,-306.16 88.25,-612.47 131.39,-918.89 43.15,-306.52 87.08,-613.36 130.62,-920.15 104.96,0 209.92,0 315.66,0 41.98,307.84 85.94,616.27 127.51,924.58 41.61,308.63 83.19,618 125.95,927.74 -80.86,-2.53 -161.72,-4.43 -241.8,-6.33 -17.88,-141.9 -35.76,-284.01 -52.87,-425.91 -80.08,-1.27 -160.16,-2.11 -239.46,-2.95zm121.29 -994.79c-14.78,120.82 -28.77,241.64 -42.76,362.24 -14,120.6 -28,241.21 -42.77,361.81 56.76,0.43 113.51,0.85 170.27,1.48 -13.99,-121.03 -28.78,-242.06 -42.76,-362.66 -14,-120.81 -27.99,-242.05 -41.98,-362.87zm835.79 1445.58c-76.97,-3.16 -153.17,-6.11 -229.36,-9.06 0,-309.95 1.18,-620.32 1.56,-930.27 0.38,-310.16 0,-620.54 0,-930.91 217.69,0 436.17,0 654.63,0 0,95.94 0,191.45 0,286.97 -142.27,-1.26 -283.77,-2.32 -425.28,-3.37 0,85.18 0,170.15 0,255.13 0,84.96 0,169.94 0,254.92 103.41,2.1 206.82,4.21 310.22,6.53 0,95.3 0,190.4 0,285.71 -103.4,-3.17 -206.81,-6.12 -310.22,-8.86 -0.77,132.2 -0.39,264.41 -0.77,396.6 -0.39,132.2 -0.78,264.41 -0.78,396.61zm1210.54 77.18c-209.14,-16.87 -418.28,-32.05 -626.65,-45.76 0,-316.28 1.17,-632.97 1.55,-949.45 0.38,-316.28 0,-633.19 0,-949.89 76.2,0 151.61,0 228.58,0 0,271.37 0,542.31 0,813.47 0,270.94 0,542.09 -0.77,813.03 132.17,8.23 264.34,16.87 397.29,25.94 0,97.61 0,195.24 0,292.66zm387.96 35.42c-76.97,-7.8 -153.93,-14.76 -230.13,-21.51 0,-326.18 0.39,-652.79 0.78,-979.19 0.38,-326.39 0,-653.21 0,-979.6 76.19,0 153.16,0 230.13,0 0,330.18 0.39,660.38 0,990.36 -0.38,329.97 -0.78,660.17 -0.78,989.94zm1039.5 125.66c-82.42,-11.8 -164.83,-23.61 -246.46,-34.78 -29.54,-113.23 -58.99,-226.49 -88.64,-339.27 -29.44,-111.98 -59.09,-224.12 -88.62,-335.45 -30.33,105.84 -59.82,211.7 -89.42,316.9 -29.49,104.81 -59.09,209.38 -88.64,313.32 -82.41,-9.49 -164.82,-18.34 -246.46,-27.2 49.77,-162.56 99.64,-326.15 149.28,-490.64 49.87,-165.27 99.52,-331.04 150.06,-498.03 -50.54,-170.79 -100.13,-340.79 -150.06,-509.63 -49.58,-167.67 -99.51,-335.04 -149.28,-501.18 84.75,0 169.5,0 254.24,0 28,104.79 56.82,209.79 84.75,315 28.04,105.62 56.76,211.49 85.53,317.96 27.98,-104.57 56.03,-209.36 83.96,-314.58 28.03,-105.62 55.98,-211.69 84.75,-318.38 84.74,0 169.49,0 255.01,0 -50.53,174.15 -100.13,347.11 -150.05,518.48 -49.59,170.2 -99.52,339.67 -149.28,507.93 49.76,176.69 99.68,354.61 149.28,534.08 49.91,180.65 99.52,362.25 150.05,545.47z"/>
  <g style="clip-path:url(#id0)">
   <g id="_2434867073328">
    <rect class="fil1" x="-136.95" y="-46.86" width="8048.72" height="2191.77"/>
   </g>
  </g>
  <g style="clip-path:url(#id1)">
   <g id="_2434867073328">
    <rect class="fil1" x="-136.95" y="-46.86" width="8048.72" height="2191.77"/>
   </g>
  </g>
  <g style="clip-path:url(#id2)">
   <g id="_2434867073328">
    <rect class="fil1" x="-136.95" y="-46.86" width="8048.72" height="2191.77"/>
   </g>
  </g>
  <g style="clip-path:url(#id3)">
   <g id="_2434867073328">
    <rect class="fil1" x="-136.95" y="-46.86" width="8048.72" height="2191.77"/>
   </g>
  </g>
  <g style="clip-path:url(#id4)">
   <g id="_2434867073328">
    <rect class="fil1" x="-136.95" y="-46.86" width="8048.72" height="2191.77"/>
   </g>
  </g>
  <g style="clip-path:url(#id5)">
   <g id="_2434867073328">
    <rect class="fil1" x="-136.95" y="-46.86" width="8048.72" height="2191.77"/>
   </g>
  </g>
  <g style="clip-path:url(#id6)">
   <g id="_2434867073328">
    <rect class="fil1" x="-136.95" y="-46.86" width="8048.72" height="2191.77"/>
   </g>
  </g>
  <g style="clip-path:url(#id7)">
   <g id="_2434867073328">
    <rect class="fil1" x="-136.95" y="-46.86" width="8048.72" height="2191.77"/>
   </g>
  </g>
  <g style="clip-path:url(#id8)">
   <g id="_2434867073328">
    <rect class="fil1" x="-136.95" y="-46.86" width="8048.72" height="2191.77"/>
   </g>
  </g>
 </g>
</svg>
