<?xml version="1.0" encoding="UTF-8"?>
<!DOCTYPE svg PUBLIC "-//W3C//DTD SVG 1.1//EN" "http://www.w3.org/Graphics/SVG/1.1/DTD/svg11.dtd">
<!-- Creator: CorelDRAW 2021 (64 Bit) -->
<svg xmlns="http://www.w3.org/2000/svg" xml:space="preserve" width="4.4586mm" height="5.7402mm" version="1.1" style="shape-rendering:geometricPrecision; text-rendering:geometricPrecision; image-rendering:optimizeQuality; fill-rule:evenodd; clip-rule:evenodd"
viewBox="0 0 41.75 53.75"
 xmlns:xlink="http://www.w3.org/1999/xlink"
 xmlns:xodm="http://www.corel.com/coreldraw/odm/2003">
 <defs>
  <style type="text/css">
   <![CDATA[
    .fil0 {fill:#40E693;fill-rule:nonzero}
   ]]>
  </style>
 </defs>
 <g id="Camada_x0020_1">
  <metadata id="CorelCorpID_0Corel-Layer"/>
  <path class="fil0" d="M29 22.22l-16.25 0 0 -7.13c0,-4.48 3.65,-8.13 8.13,-8.13 4.48,0 8.12,3.64 8.12,8.13l0 7.13zm-8.12 -19.73c6.95,0 12.6,5.65 12.6,12.6l0 7.13 -1.99 0 0 -7.13c0,-5.85 -4.76,-10.61 -10.61,-10.61 -5.85,0 -10.61,4.76 -10.61,10.61l0 7.13 -1.99 0 0 -7.13c0,-6.95 5.65,-12.6 12.6,-12.6zm-18.39 26.39c0,-2.3 1.87,-4.17 4.17,-4.17l28.43 0c2.3,0 4.17,1.87 4.17,4.17l0 18.21c0,2.3 -1.87,4.17 -4.17,4.17l-28.43 0c-2.3,0 -4.17,-1.87 -4.17,-4.17l0 -18.21zm4.17 24.87l28.43 0c3.67,0 6.66,-2.99 6.66,-6.66l0 -18.21c0,-3.37 -2.53,-6.17 -5.78,-6.59l0 -7.2c0,-8.32 -6.77,-15.09 -15.09,-15.09 -8.32,0 -15.09,6.77 -15.09,15.09l0 7.2c-3.26,0.43 -5.78,3.22 -5.78,6.59l0 18.21c0,3.67 2.99,6.66 6.66,6.66z"/>
  <path class="fil0" d="M19.39 33.23l2.97 0 0 9.52 -2.97 0 0 -9.52zm-0.99 11.51l4.96 0c0.55,0 0.99,-0.44 0.99,-0.99l0 -11.51c0,-0.55 -0.44,-0.99 -0.99,-0.99l-4.96 0c-0.55,0 -1,0.44 -1,0.99l0 11.51c0,0.55 0.44,0.99 1,0.99z"/>
 </g>
</svg>
