<?xml version="1.0" encoding="UTF-8"?>
<svg xmlns="http://www.w3.org/2000/svg" xmlns:xlink="http://www.w3.org/1999/xlink" viewBox="0 0 48 48" width="48px" height="48px">
<g id="surface78277079">
<path style=" stroke:none;fill-rule:nonzero;fill:rgb(79.607844%,83.92157%,87.450981%);fill-opacity:1;" d="M 21.121094 0 C 14.398438 0 9.601562 6.71875 9.601562 13.441406 C 9.601562 28.320312 22.078125 40.320312 22.078125 40.320312 C 22.078125 40.320312 13.441406 27.839844 13.441406 13.441406 C 13.441406 1.921875 21.121094 0 21.121094 0 Z M 24 0 C 22.839844 0 21.144531 0.695312 19.75 2.835938 C 18.355469 4.976562 17.28125 8.523438 17.28125 14.398438 C 17.28125 25.292969 22.863281 39.703125 22.863281 39.703125 L 23.101562 40.320312 L 24.898438 40.320312 L 25.136719 39.703125 C 25.136719 39.703125 30.71875 25.292969 30.71875 14.398438 C 30.71875 8.523438 29.644531 4.976562 28.25 2.835938 C 26.855469 0.695312 25.160156 0 24 0 Z M 26.878906 0 C 26.878906 0 34.558594 1.921875 34.558594 13.441406 C 34.558594 27.839844 25.921875 40.320312 25.921875 40.320312 C 25.921875 40.320312 38.398438 28.320312 38.398438 13.441406 C 38.398438 6.71875 33.601562 0 26.878906 0 Z M 13.441406 1.921875 C 13.441406 1.921875 5.761719 4.800781 5.761719 13.441406 C 5.761719 29.761719 20.640625 40.320312 20.640625 40.320312 C 20.640625 40.320312 7.679688 28.800781 7.679688 13.441406 C 7.679688 5.519531 13.441406 1.921875 13.441406 1.921875 Z M 24 1.921875 C 24.347656 1.921875 25.535156 2.1875 26.640625 3.886719 C 27.75 5.585938 28.800781 8.757812 28.800781 14.398438 C 28.800781 23.394531 25.015625 34.171875 24 36.980469 C 22.984375 34.171875 19.199219 23.394531 19.199219 14.398438 C 19.199219 8.757812 20.25 5.585938 21.359375 3.886719 C 22.464844 2.1875 23.652344 1.921875 24 1.921875 Z M 34.558594 1.921875 C 34.558594 1.921875 40.320312 5.519531 40.320312 13.441406 C 40.320312 28.800781 27.359375 40.320312 27.359375 40.320312 C 27.359375 40.320312 42.238281 29.761719 42.238281 13.441406 C 42.238281 4.800781 34.558594 1.921875 34.558594 1.921875 Z M 20.160156 42.238281 C 19.863281 42.238281 19.585938 42.375 19.402344 42.609375 C 19.222656 42.84375 19.15625 43.144531 19.226562 43.433594 L 20.1875 47.273438 C 20.292969 47.699219 20.679688 48 21.121094 48 L 26.878906 48 C 27.320312 48 27.707031 47.699219 27.8125 47.273438 L 28.773438 43.433594 C 28.84375 43.144531 28.777344 42.84375 28.597656 42.609375 C 28.414062 42.375 28.136719 42.238281 27.839844 42.238281 Z M 21.390625 44.160156 L 26.609375 44.160156 L 26.128906 46.078125 L 21.871094 46.078125 Z M 21.390625 44.160156 "/>
</g>
</svg>
