<?xml version="1.0" encoding="UTF-8"?>
<!DOCTYPE svg PUBLIC "-//W3C//DTD SVG 1.1//EN" "http://www.w3.org/Graphics/SVG/1.1/DTD/svg11.dtd">
<!-- Creator: CorelDRAW 2021 (64 Bit) -->
<svg xmlns="http://www.w3.org/2000/svg" xml:space="preserve" width="3.3868mm" height="4.5876mm" version="1.1" style="shape-rendering:geometricPrecision; text-rendering:geometricPrecision; image-rendering:optimizeQuality; fill-rule:evenodd; clip-rule:evenodd"
viewBox="0 0 26.26 35.56"
 xmlns:xlink="http://www.w3.org/1999/xlink"
 xmlns:xodm="http://www.corel.com/coreldraw/odm/2003">
 <defs>
  <style type="text/css">
   <![CDATA[
    .fil0 {fill:#FF014F;fill-rule:nonzero}
   ]]>
  </style>
 </defs>
 <g id="Camada_x0020_1">
  <metadata id="CorelCorpID_0Corel-Layer"/>
  <path class="fil0" d="M1.31 0l14.15 0c0.38,0 0.72,0.16 0.96,0.41l9.45 9.46c0.17,0.17 0.28,0.37 0.34,0.59l0.05 0 0 2.63 -0 0 0 21.17c0,0.72 -0.59,1.31 -1.31,1.31l-23.63 0c-0.72,0 -1.31,-0.59 -1.31,-1.31l0 -32.94c0,-0.72 0.59,-1.31 1.31,-1.31zm15.46 4.48l0 5.97 5.97 0 -5.97 -5.97zm6.86 8.6l-9.48 0 0 -10.46 -11.52 0 0 30.31 21 0 0 -19.85z"/>
 </g>
</svg>
