<?xml version="1.0" encoding="UTF-8"?>
<!DOCTYPE svg PUBLIC "-//W3C//DTD SVG 1.1//EN" "http://www.w3.org/Graphics/SVG/1.1/DTD/svg11.dtd">
<!-- Creator: CorelDRAW 2021 (64 Bit) -->
<svg xmlns="http://www.w3.org/2000/svg" xml:space="preserve" width="4.064mm" height="3.935mm" version="1.1" style="shape-rendering:geometricPrecision; text-rendering:geometricPrecision; image-rendering:optimizeQuality; fill-rule:evenodd; clip-rule:evenodd"
viewBox="0 0 25.45 24.64"
 xmlns:xlink="http://www.w3.org/1999/xlink"
 xmlns:xodm="http://www.corel.com/coreldraw/odm/2003">
 <defs>
  <style type="text/css">
   <![CDATA[
    .fil0 {fill:#A2BED3}
   ]]>
  </style>
 </defs>
 <g id="Camada_x0020_1">
  <metadata id="CorelCorpID_0Corel-Layer"/>
  <path class="fil0" d="M13.96 2.04c1,0.12 1.92,0.35 2.81,0.73 1.31,0.5 2.5,1.31 3.46,2.27 1,0.96 1.81,2.12 2.35,3.42 0.35,0.84 0.61,1.77 0.73,2.73l1.19 0c0.5,0 0.96,0.42 0.96,0.92l0 0.69c0,0.54 -0.46,0.96 -0.96,0.96l-1.19 0c-0.12,0.92 -0.39,1.84 -0.73,2.73 -0.54,1.27 -1.35,2.42 -2.35,3.38 -0.96,1 -2.15,1.77 -3.46,2.31 -0.88,0.35 -1.81,0.58 -2.81,0.69l0 0.81c0,0.5 -0.42,0.96 -0.96,0.96l-0.69 0c-0.54,0 -0.96,-0.46 -0.96,-0.96l0 -0.81c-0.96,-0.11 -1.92,-0.35 -2.81,-0.69 -1.31,-0.54 -2.46,-1.31 -3.46,-2.31 -1,-0.96 -1.81,-2.12 -2.35,-3.38 -0.35,-0.88 -0.61,-1.81 -0.73,-2.73l-1.04 0c-0.54,0 -0.96,-0.42 -0.96,-0.96l0 -0.69c0,-0.5 0.42,-0.92 0.96,-0.92l1.04 0c0.12,-0.96 0.39,-1.88 0.73,-2.73 0.54,-1.31 1.35,-2.46 2.35,-3.42 1,-0.96 2.15,-1.77 3.46,-2.27 0.88,-0.38 1.85,-0.62 2.81,-0.73l0 -1.08c0,-0.54 0.42,-0.96 0.96,-0.96l0.69 0c0.54,0 0.96,0.42 0.96,0.96l0 1.08zm2.77 10.77l0 -0.69c0,-0.5 0.42,-0.92 0.96,-0.92l3.46 0c-0.12,-0.69 -0.27,-1.35 -0.54,-1.92 -0.42,-1.04 -1.08,-1.96 -1.88,-2.77 -0.81,-0.77 -1.73,-1.38 -2.77,-1.81 -0.61,-0.27 -1.31,-0.42 -2,-0.54l0 3.46c0,0.5 -0.42,0.92 -0.96,0.92l-0.69 0c-0.54,0 -0.96,-0.42 -0.96,-0.92l0 -3.46c-0.69,0.12 -1.35,0.27 -1.96,0.54 -1.08,0.42 -2,1.04 -2.81,1.81 -0.81,0.81 -1.42,1.73 -1.88,2.77 -0.23,0.58 -0.42,1.23 -0.54,1.92l3.61 0c0.54,0 0.96,0.42 0.96,0.92l0 0.69c0,0.54 -0.42,0.96 -0.96,0.96l-3.61 0c0.12,0.65 0.31,1.31 0.54,1.92 0.46,1.04 1.08,1.96 1.88,2.73 0.81,0.77 1.73,1.42 2.81,1.85 0.61,0.23 1.27,0.42 1.96,0.54l0 -3.77c0,-0.5 0.42,-0.92 0.96,-0.92l0.69 0c0.54,0 0.96,0.42 0.96,0.92l0 3.77c0.69,-0.12 1.38,-0.31 2,-0.54 1.04,-0.42 1.96,-1.08 2.77,-1.85 0.81,-0.77 1.46,-1.69 1.88,-2.73 0.27,-0.62 0.42,-1.27 0.54,-1.92l-3.46 0c-0.54,0 -0.96,-0.42 -0.96,-0.96l0 0z"/>
 </g>
</svg>
