<?xml version="1.0" encoding="UTF-8"?>
<!DOCTYPE svg PUBLIC "-//W3C//DTD SVG 1.1//EN" "http://www.w3.org/Graphics/SVG/1.1/DTD/svg11.dtd">
<!-- Creator: CorelDRAW 2021 (64 Bit) -->
<svg xmlns="http://www.w3.org/2000/svg" xml:space="preserve" width="4.064mm" height="4.064mm" version="1.1" style="shape-rendering:geometricPrecision; text-rendering:geometricPrecision; image-rendering:optimizeQuality; fill-rule:evenodd; clip-rule:evenodd"
viewBox="0 0 24.25 24.25"
 xmlns:xlink="http://www.w3.org/1999/xlink"
 xmlns:xodm="http://www.corel.com/coreldraw/odm/2003">
 <defs>
  <style type="text/css">
   <![CDATA[
    .fil0 {fill:#FF014F;fill-rule:nonzero}
   ]]>
  </style>
 </defs>
 <g id="Camada_x0020_1">
  <metadata id="CorelCorpID_0Corel-Layer"/>
  <path class="fil0" d="M12.13 0c-3.29,0 -3.71,0.01 -5,0.07 -1.29,0.06 -2.17,0.26 -2.94,0.56 -0.8,0.31 -1.47,0.72 -2.15,1.4 -0.67,0.67 -1.09,1.35 -1.4,2.15 -0.3,0.77 -0.5,1.65 -0.56,2.94 -0.06,1.29 -0.07,1.71 -0.07,5 0,3.29 0.01,3.71 0.07,5 0.06,1.29 0.26,2.17 0.56,2.94 0.31,0.8 0.72,1.47 1.4,2.15 0.67,0.67 1.35,1.09 2.15,1.4 0.77,0.3 1.65,0.5 2.94,0.56 1.29,0.06 1.71,0.07 5,0.07 3.29,0 3.71,-0.01 5,-0.07 1.29,-0.06 2.17,-0.26 2.94,-0.56 0.8,-0.31 1.47,-0.72 2.15,-1.4 0.67,-0.67 1.09,-1.35 1.4,-2.15 0.3,-0.77 0.5,-1.65 0.56,-2.94 0.06,-1.29 0.07,-1.71 0.07,-5 0,-3.29 -0.01,-3.71 -0.07,-5 -0.06,-1.29 -0.26,-2.17 -0.56,-2.94 -0.31,-0.8 -0.72,-1.47 -1.4,-2.15 -0.67,-0.67 -1.35,-1.09 -2.15,-1.4 -0.77,-0.3 -1.65,-0.5 -2.94,-0.56 -1.29,-0.06 -1.71,-0.07 -5,-0.07zm7.93 5.65c0,0.8 -0.65,1.46 -1.45,1.46 -0.8,0 -1.46,-0.65 -1.46,-1.46 0,-0.8 0.65,-1.46 1.46,-1.46 0.8,0 1.45,0.65 1.45,1.46zm-7.93 10.52c-2.23,0 -4.04,-1.81 -4.04,-4.04 0,-2.23 1.81,-4.04 4.04,-4.04 2.23,0 4.04,1.81 4.04,4.04 0,2.23 -1.81,4.04 -4.04,4.04zm0 -10.27c-3.44,0 -6.23,2.79 -6.23,6.23 0,3.44 2.79,6.23 6.23,6.23 3.44,0 6.23,-2.79 6.23,-6.23 0,-3.44 -2.79,-6.23 -6.23,-6.23zm0 -3.71c3.24,0 3.62,0.01 4.9,0.07 1.18,0.05 1.82,0.25 2.25,0.42 0.57,0.22 0.97,0.48 1.39,0.91 0.42,0.42 0.69,0.83 0.91,1.39 0.17,0.43 0.36,1.07 0.42,2.25 0.06,1.28 0.07,1.66 0.07,4.9 0,3.24 -0.01,3.62 -0.07,4.9 -0.05,1.18 -0.25,1.82 -0.42,2.25 -0.22,0.57 -0.48,0.97 -0.91,1.39 -0.42,0.42 -0.83,0.69 -1.39,0.91 -0.43,0.17 -1.07,0.36 -2.25,0.42 -1.28,0.06 -1.66,0.07 -4.9,0.07 -3.24,0 -3.62,-0.01 -4.9,-0.07 -1.18,-0.05 -1.82,-0.25 -2.25,-0.42 -0.57,-0.22 -0.97,-0.48 -1.39,-0.91 -0.42,-0.42 -0.69,-0.83 -0.91,-1.39 -0.17,-0.43 -0.36,-1.07 -0.42,-2.25 -0.06,-1.28 -0.07,-1.66 -0.07,-4.9 0,-3.24 0.01,-3.62 0.07,-4.9 0.05,-1.18 0.25,-1.82 0.42,-2.25 0.22,-0.57 0.48,-0.97 0.91,-1.39 0.42,-0.42 0.83,-0.69 1.39,-0.91 0.43,-0.17 1.07,-0.36 2.25,-0.42 1.28,-0.06 1.66,-0.07 4.9,-0.07z"/>
 </g>
</svg>
