<?xml version="1.0" encoding="UTF-8"?>
<!DOCTYPE svg PUBLIC "-//W3C//DTD SVG 1.1//EN" "http://www.w3.org/Graphics/SVG/1.1/DTD/svg11.dtd">
<!-- Creator: CorelDRAW 2021 (64 Bit) -->
<svg xmlns="http://www.w3.org/2000/svg" xml:space="preserve" width="4.0752mm" height="4.064mm" version="1.1" style="shape-rendering:geometricPrecision; text-rendering:geometricPrecision; image-rendering:optimizeQuality; fill-rule:evenodd; clip-rule:evenodd"
viewBox="0 0 140.12 139.74"
 xmlns:xlink="http://www.w3.org/1999/xlink"
 xmlns:xodm="http://www.corel.com/coreldraw/odm/2003">
 <defs>
  <style type="text/css">
   <![CDATA[
    .fil0 {fill:#FF014F;fill-rule:nonzero}
   ]]>
  </style>
 </defs>
 <g id="Camada_x0020_1">
  <metadata id="CorelCorpID_0Corel-Layer"/>
  <path class="fil0" d="M77.38 59.01c1.94,-2.18 3.54,-4.4 5.53,-6.28 6.13,-5.78 13.38,-8.7 21.85,-8.62 4.65,0.04 9.25,0.37 13.74,1.67 10.26,2.97 16.23,10.03 19.07,20.06 2.13,7.52 2.52,15.24 2.54,22.98 0.03,16.33 -0.05,32.66 -0.01,48.99 0.01,1.53 -0.42,1.93 -1.93,1.92 -8.41,-0.07 -16.83,-0.07 -25.24,0 -1.48,0.01 -1.8,-0.45 -1.79,-1.84 0.04,-15.54 0.06,-31.08 0.01,-46.62 -0.01,-3.9 -0.26,-7.78 -1.35,-11.57 -2.01,-6.97 -7,-10.52 -14.31,-10.14 -9.98,0.53 -15.17,5.47 -16.44,15.61 -0.31,2.42 -0.45,4.85 -0.45,7.29 0.01,15.12 -0.01,30.23 0.04,45.34 0.01,1.51 -0.37,1.95 -1.91,1.94 -8.47,-0.08 -16.95,-0.07 -25.42,-0.01 -1.36,0.01 -1.75,-0.36 -1.75,-1.73 0.04,-29.92 0.04,-59.84 -0,-89.76 0,-1.48 0.48,-1.83 1.88,-1.82 8.05,0.06 16.1,0.07 24.14,-0 1.49,-0.01 1.86,0.46 1.83,1.87 -0.08,3.58 -0.02,7.15 -0.02,10.73zm-43.78 -42.29c0,9.29 -7.54,16.87 -16.81,16.87 -9.16,0 -16.76,-7.57 -16.79,-16.73 -0.03,-9.25 7.57,-16.86 16.82,-16.86 9.19,0.01 16.76,7.55 16.78,16.71zm-2.32 76.49c0,14.8 -0.02,29.6 0.04,44.41 0.01,1.64 -0.41,2.14 -2.1,2.12 -8.41,-0.1 -16.82,-0.07 -25.23,-0.01 -1.35,0.01 -1.75,-0.33 -1.75,-1.72 0.04,-29.97 0.04,-59.94 0.01,-89.91 -0,-1.24 0.3,-1.68 1.62,-1.67 8.53,0.06 17.06,0.07 25.6,-0.01 1.64,-0.02 1.86,0.62 1.86,2.03 -0.04,14.92 -0.03,29.85 -0.03,44.77z"/>
 </g>
</svg>
