<?xml version="1.0" encoding="UTF-8"?>
<!DOCTYPE svg PUBLIC "-//W3C//DTD SVG 1.1//EN" "http://www.w3.org/Graphics/SVG/1.1/DTD/svg11.dtd">
<!-- Creator: CorelDRAW 2021 (64 Bit) -->
<svg xmlns="http://www.w3.org/2000/svg" xml:space="preserve" width="3.1147mm" height="4.064mm" version="1.1" style="shape-rendering:geometricPrecision; text-rendering:geometricPrecision; image-rendering:optimizeQuality; fill-rule:evenodd; clip-rule:evenodd"
viewBox="0 0 15.51 20.24"
 xmlns:xlink="http://www.w3.org/1999/xlink"
 xmlns:xodm="http://www.corel.com/coreldraw/odm/2003">
 <defs>
  <style type="text/css">
   <![CDATA[
    .fil0 {fill:#FF014F;fill-rule:nonzero}
   ]]>
  </style>
 </defs>
 <g id="Camada_x0020_1">
  <metadata id="CorelCorpID_0Corel-Layer"/>
  <path class="fil0" d="M7.76 17.49c-2.11,-2.41 -5.9,-7.24 -5.9,-9.73 0,-3.25 2.65,-5.9 5.9,-5.9 3.25,0 5.9,2.65 5.9,5.9 0,2.49 -3.78,7.32 -5.9,9.73zm0 -8.28c-0.98,0 -1.78,-0.8 -1.78,-1.78 0,-0.98 0.8,-1.78 1.78,-1.78 0.98,0 1.78,0.8 1.78,1.78 0,0.98 -0.8,1.78 -1.78,1.78zm0 -5.41c-2,0 -3.63,1.63 -3.63,3.63 0,2 1.63,3.63 3.63,3.63 2,0 3.63,-1.63 3.63,-3.63 0,-2 -1.63,-3.63 -3.63,-3.63zm0 -3.79c-4.28,0 -7.76,3.48 -7.76,7.76 0,4.02 6.35,10.97 7.08,11.75l0.68 0.73 0.68 -0.73c0.72,-0.78 7.08,-7.73 7.08,-11.75 0,-4.28 -3.48,-7.76 -7.76,-7.76z"/>
 </g>
</svg>
