<?xml version="1.0" encoding="UTF-8"?>
<svg xmlns="http://www.w3.org/2000/svg" xmlns:xlink="http://www.w3.org/1999/xlink" viewBox="0 0 48 48" width="48px" height="48px">
<g id="surface78245472">
<path style=" stroke:none;fill-rule:nonzero;fill:rgb(78.431374%,83.92157%,87.450981%);fill-opacity:1;" d="M 7.5 7.5 L 7.5 40.5 L 40.5 40.5 L 40.5 7.5 Z M 10.5 10.5 L 37.5 10.5 L 37.5 37.5 L 10.5 37.5 Z M 15 16.5 L 15 31.5 L 18 31.5 L 18 25.5 L 19.5 25.5 C 21.964844 25.5 24 23.464844 24 21 C 24 18.535156 21.964844 16.5 19.5 16.5 Z M 18 19.5 L 19.5 19.5 C 20.351562 19.5 21 20.148438 21 21 C 21 21.851562 20.351562 22.5 19.5 22.5 L 18 22.5 Z M 29.25 19.5 C 27.199219 19.5 25.5 21.199219 25.5 23.25 C 25.5 25.300781 27.199219 27 29.25 27 C 29.679688 27 30 27.320312 30 27.75 C 30 28.292969 29.90625 28.5 29.25 28.5 C 28.679688 28.5 28.601562 28.371094 28.59375 28.359375 C 28.585938 28.347656 28.5 28.300781 28.5 27.9375 L 25.5 27.9375 C 25.5 28.789062 25.734375 29.746094 26.4375 30.46875 C 27.140625 31.191406 28.160156 31.5 29.25 31.5 C 31.367188 31.5 33 29.691406 33 27.75 C 33 25.699219 31.300781 24 29.25 24 C 28.820312 24 28.5 23.679688 28.5 23.25 C 28.5 22.820312 28.820312 22.5 29.25 22.5 C 29.652344 22.5 29.765625 22.585938 29.859375 22.6875 C 29.953125 22.789062 30 22.980469 30 23.109375 L 33 23.109375 C 33 22.257812 32.707031 21.382812 32.0625 20.671875 C 31.417969 19.960938 30.386719 19.5 29.25 19.5 Z M 29.25 19.5 "/>
</g>
</svg>
