<?xml version="1.0" encoding="UTF-8"?>
<svg xmlns="http://www.w3.org/2000/svg" xmlns:xlink="http://www.w3.org/1999/xlink" viewBox="0 0 48 48" width="48px" height="48px">
<g id="surface78361207">
<path style=" stroke:none;fill-rule:nonzero;fill:rgb(79.607844%,83.92157%,87.450981%);fill-opacity:1;" d="M 7.5 7.5 L 7.5 40.5 L 40.5 40.5 L 40.5 7.5 Z M 10.5 10.5 L 37.5 10.5 L 37.5 37.5 L 10.5 37.5 Z M 15 16.5 L 15 31.5 L 18 31.5 L 18 25.5 L 19.5 25.5 C 21.96875 25.5 24 23.46875 24 21 C 24 18.53125 21.96875 16.5 19.5 16.5 Z M 18 19.5 L 19.5 19.5 C 20.347656 19.5 21 20.152344 21 21 C 21 21.847656 20.347656 22.5 19.5 22.5 L 18 22.5 Z M 25.5 19.5 L 25.5 31.5 L 28.5 31.5 L 28.5 25.5 C 28.5 23.824219 29.824219 22.5 31.5 22.5 L 33 22.5 L 33 19.5 L 31.5 19.5 C 30.402344 19.5 29.386719 19.820312 28.5 20.339844 L 28.5 19.5 Z M 25.5 19.5 "/>
</g>
</svg>
