<?xml version="1.0" encoding="UTF-8"?>
<!DOCTYPE svg PUBLIC "-//W3C//DTD SVG 1.1//EN" "http://www.w3.org/Graphics/SVG/1.1/DTD/svg11.dtd">
<!-- Creator: CorelDRAW 2021 (64 Bit) -->
<svg xmlns="http://www.w3.org/2000/svg" xml:space="preserve" width="3.3867mm" height="3.3949mm" version="1.1" style="shape-rendering:geometricPrecision; text-rendering:geometricPrecision; image-rendering:optimizeQuality; fill-rule:evenodd; clip-rule:evenodd"
viewBox="0 0 26.57 26.63"
 xmlns:xlink="http://www.w3.org/1999/xlink"
 xmlns:xodm="http://www.corel.com/coreldraw/odm/2003">
 <defs>
  <style type="text/css">
   <![CDATA[
    .fil1 {fill:#FF014F}
    .fil0 {fill:#FF014F;fill-rule:nonzero}
   ]]>
  </style>
 </defs>
 <g id="Camada_x0020_1">
  <metadata id="CorelCorpID_0Corel-Layer"/>
  <path class="fil0" d="M7.52 22.04l0.45 0.27c1.66,0.99 3.54,1.51 5.45,1.51 5.88,0 10.67,-4.78 10.67,-10.67 0,-5.88 -4.79,-10.67 -10.67,-10.67 -5.88,0 -10.67,4.79 -10.67,10.67 0,1.94 0.54,3.85 1.56,5.53l0.28 0.46 -1.07 3.98 4 -1.07zm-7.52 4.59l1.91 -7.12c-1.08,-1.95 -1.65,-4.14 -1.65,-6.36 0,-7.25 5.9,-13.15 13.16,-13.15 7.25,0 13.15,5.9 13.15,13.15 0,7.25 -5.9,13.16 -13.15,13.16 -2.18,0 -4.33,-0.55 -6.25,-1.59l-7.16 1.92z"/>
  <path class="fil1" d="M18.31 14.98c-0.54,-0.32 -1.25,-0.68 -1.88,-0.42 -0.49,0.2 -0.8,0.96 -1.12,1.36 -0.16,0.2 -0.36,0.23 -0.61,0.13 -1.84,-0.73 -3.24,-1.96 -4.26,-3.65 -0.17,-0.26 -0.14,-0.47 0.07,-0.71 0.31,-0.36 0.69,-0.77 0.77,-1.26 0.08,-0.48 -0.14,-1.05 -0.35,-1.49 -0.26,-0.55 -0.54,-1.34 -1.1,-1.65 -0.51,-0.29 -1.18,-0.13 -1.63,0.24 -0.78,0.64 -1.16,1.64 -1.15,2.63 0,0.28 0.04,0.56 0.1,0.83 0.16,0.65 0.46,1.26 0.8,1.84 0.26,0.44 0.54,0.86 0.83,1.27 0.98,1.34 2.2,2.49 3.62,3.36 0.71,0.43 1.47,0.81 2.26,1.07 0.88,0.29 1.67,0.6 2.63,0.42 1,-0.19 1.99,-0.81 2.38,-1.77 0.12,-0.28 0.18,-0.6 0.11,-0.9 -0.14,-0.62 -0.98,-0.99 -1.48,-1.3z"/>
 </g>
</svg>
