<?xml version="1.0" encoding="utf-8"?>
<!-- Generator: Adobe Illustrator 26.3.0, SVG Export Plug-In . SVG Version: 6.00 Build 0)  -->
<svg version="1.1" id="Camada_1" xmlns="http://www.w3.org/2000/svg" xmlns:xlink="http://www.w3.org/1999/xlink" x="0px" y="0px"
	 viewBox="0 0 24 24" style="enable-background:new 0 0 24 24;" xml:space="preserve">
<style type="text/css">
	.st0{fill:#1D9BF0;}
</style>
<g>
	<path class="st0" d="M3,5.5C3,4.1,4.1,3,5.5,3h13C19.9,3,21,4.1,21,5.5v13c0,1.4-1.1,2.5-2.5,2.5h-13C4.1,21,3,19.9,3,18.5V5.5z
		 M5.5,5C5.2,5,5,5.2,5,5.5v13C5,18.8,5.2,19,5.5,19h13c0.3,0,0.5-0.2,0.5-0.5v-13C19,5.2,18.8,5,18.5,5H5.5z M18,10.7V9.2h-3.7v5.5
		h1.4V13h1.7v-1.5h-1.7v-0.9C15.7,10.7,18,10.7,18,10.7z M11.8,9.2h1.4v5.5h-1.4C11.8,14.8,11.8,9.2,11.8,9.2z M8.7,10.6
		c0.3,0,0.8,0.2,1,0.4l1-0.9c-0.5-0.6-1.3-0.9-2.1-0.9C7.2,9.2,6,10.5,6,12s1.2,2.8,2.7,2.8c0.9,0,1.5-0.3,2.1-0.9v-2.1H8.4v1h1v0.5
		c-0.2,0.1-0.4,0.2-0.7,0.2c-0.8,0-1.4-0.6-1.4-1.4C7.4,11.3,8,10.6,8.7,10.6z"/>
</g>
</svg>
