<?xml version="1.0" encoding="UTF-8"?>
<!DOCTYPE svg PUBLIC "-//W3C//DTD SVG 1.1//EN" "http://www.w3.org/Graphics/SVG/1.1/DTD/svg11.dtd">
<!-- Creator: CorelDRAW 2021 (64 Bit) -->
<svg xmlns="http://www.w3.org/2000/svg" xml:space="preserve" width="2.7092mm" height="2.7092mm" version="1.1" style="shape-rendering:geometricPrecision; text-rendering:geometricPrecision; image-rendering:optimizeQuality; fill-rule:evenodd; clip-rule:evenodd"
viewBox="0 0 270.92 270.92"
 xmlns:xlink="http://www.w3.org/1999/xlink"
 xmlns:xodm="http://www.corel.com/coreldraw/odm/2003">
 <defs>
  <style type="text/css">
   <![CDATA[
    .fil3 {fill:none}
    .fil1 {fill:none;fill-rule:nonzero}
    .fil2 {fill:#E50914}
    .fil0 {fill:#B1060F;fill-rule:nonzero}
    .fil4 {fill:url(#id6)}
   ]]>
  </style>
    <clipPath id="id0" style="clip-rule:nonzero">
     <path d="M59.32 270.93l0 -270.94 67.66 0c17.85,0 33.97,4.26 48.29,12.77 12.29,7.2 21.05,18.35 26.28,33.45 2.86,8.06 4.32,17.64 4.32,28.74 0,18.14 -5.34,32.68 -15.95,43.63 -4.49,4.61 -9.71,8.16 -15.78,10.59 10.06,3.5 18.53,10.34 25.55,20.53 4.61,6.94 8.03,15.86 10.22,26.81 1.12,5.62 1.69,11.86 1.69,18.8 0,17.13 -3.6,31.68 -10.78,43.64 -5.56,9.37 -13.42,16.87 -23.64,22.45 -11.46,6.33 -22.86,9.53 -34.2,9.53l-83.66 0zm48.85 -40.45l18.81 0c15.21,0 25.77,-7.09 31.67,-21.33 2.07,-4.87 3.08,-10.49 3.08,-16.83 0,-15.05 -3.2,-26.05 -9.54,-32.94 -5.67,-6.34 -14.1,-9.48 -25.21,-9.48l-18.81 0 0 80.58zm0 -119.8l18.81 0c13.98,0 23.36,-6.24 28.07,-18.65 1.74,-4.62 2.64,-10.29 2.64,-17.08 0,-11.31 -3.03,-19.82 -9.04,-25.6 -5.56,-5.32 -12.8,-8 -21.67,-8l-18.81 0 0 69.33z"/>
    </clipPath>
     <clipPath id="id1">
      <path d="M145.57 1.64l0 45.16c-5.07,-3.63 -11.27,-5.45 -18.59,-5.45l-18.81 0 0 69.33 18.81 0c7.54,0 13.74,-1.81 18.59,-5.43l0 48.83c-5,-2.8 -11.2,-4.18 -18.59,-4.18l-18.81 0 0 80.58 18.81 0c7.26,0 13.45,-1.61 18.59,-4.85l0 45.24 -2.59 0.06 -83.66 0 0 -270.94 67.66 0c6.42,0 12.62,0.55 18.59,1.65z"/>
     </clipPath>
     <clipPath id="id2">
      <path d="M59.32 270.93l0 -270.94 67.66 0c17.85,0 33.97,4.26 48.29,12.77 12.29,7.2 21.05,18.35 26.28,33.45 2.86,8.06 4.32,17.64 4.32,28.74 0,18.14 -5.34,32.68 -15.95,43.63 -4.49,4.61 -9.71,8.16 -15.78,10.59 10.06,3.5 18.53,10.34 25.55,20.53 4.61,6.94 8.03,15.86 10.22,26.81 1.12,5.62 1.69,11.86 1.69,18.8 0,17.13 -3.6,31.68 -10.78,43.64 -5.56,9.37 -13.42,16.87 -23.64,22.45 -11.46,6.33 -22.86,9.53 -34.2,9.53l-83.66 0zm48.85 -40.45l18.81 0c15.21,0 25.77,-7.09 31.67,-21.33 2.07,-4.87 3.08,-10.49 3.08,-16.83 0,-15.05 -3.2,-26.05 -9.54,-32.94 -5.67,-6.34 -14.1,-9.48 -25.21,-9.48l-18.81 0 0 80.58zm0 -119.8l18.81 0c13.98,0 23.36,-6.24 28.07,-18.65 1.74,-4.62 2.64,-10.29 2.64,-17.08 0,-11.31 -3.03,-19.82 -9.04,-25.6 -5.56,-5.32 -12.8,-8 -21.67,-8l-18.81 0 0 69.33z"/>
     </clipPath>
    <clipPath id="id3">
     <path d="M59.32 -0.01l50.39 0 0 270.94 -50.39 0 0 -270.94z"/>
    </clipPath>
     <clipPath id="id4">
      <path d="M59.32 91.01l50.39 0 0 78.5 -50.39 0 0 -78.5z"/>
     </clipPath>
     <clipPath id="id5">
      <path d="M59.32 -0.01l50.39 0 0 270.94 -50.39 0 0 -270.94z"/>
     </clipPath>
  <linearGradient id="id6" gradientUnits="userSpaceOnUse" x1="59.31" y1="130.26" x2="140.71" y2="130.26">
   <stop offset="0" style="stop-opacity:1; stop-color:#E50914"/>
   <stop offset="0.301961" style="stop-opacity:1; stop-color:#E50914"/>
   <stop offset="0.85098" style="stop-opacity:1; stop-color:#B1060F"/>
   <stop offset="1" style="stop-opacity:1; stop-color:#B1060F"/>
  </linearGradient>
 </defs>
 <g id="Camada_x0020_1">
  <metadata id="CorelCorpID_0Corel-Layer"/>
  <g id="_2292831263120">
   <path class="fil0" d="M59.32 270.93l0 -270.94 67.66 0c17.85,0 33.97,4.26 48.29,12.77 12.29,7.2 21.05,18.35 26.28,33.45 2.86,8.06 4.32,17.64 4.32,28.74 0,18.14 -5.34,32.68 -15.95,43.63 -4.49,4.61 -9.71,8.16 -15.78,10.59 10.06,3.5 18.53,10.34 25.55,20.53 4.61,6.94 8.03,15.86 10.22,26.81 1.12,5.62 1.69,11.86 1.69,18.8 0,17.13 -3.6,31.68 -10.78,43.64 -5.56,9.37 -13.42,16.87 -23.64,22.45 -11.46,6.33 -22.86,9.53 -34.2,9.53l-83.66 0zm48.85 -40.45l18.81 0c15.21,0 25.77,-7.09 31.67,-21.33 2.07,-4.87 3.08,-10.49 3.08,-16.83 0,-15.05 -3.2,-26.05 -9.54,-32.94 -5.67,-6.34 -14.1,-9.48 -25.21,-9.48l-18.81 0 0 80.58zm0 -119.8l18.81 0c13.98,0 23.36,-6.24 28.07,-18.65 1.74,-4.62 2.64,-10.29 2.64,-17.08 0,-11.31 -3.03,-19.82 -9.04,-25.6 -5.56,-5.32 -12.8,-8 -21.67,-8l-18.81 0 0 69.33z"/>
   <g style="clip-path:url(#id0)">
    <g>
    </g>
    <g style="clip-path:url(#id1)">
     <image x="44.78" y="-25.1" width="100.79" height="321.32" xlink:href="favicon_Images\favicon_ImgID1.png"/>
    </g>
    <g style="clip-path:url(#id2)">
    </g>
   </g>
   <path class="fil1" d="M59.32 270.93l0 -270.94 67.66 0c17.85,0 33.97,4.26 48.29,12.77 12.29,7.2 21.05,18.35 26.28,33.45 2.86,8.06 4.32,17.64 4.32,28.74 0,18.14 -5.34,32.68 -15.95,43.63 -4.49,4.61 -9.71,8.16 -15.78,10.59 10.06,3.5 18.53,10.34 25.55,20.53 4.61,6.94 8.03,15.86 10.22,26.81 1.12,5.62 1.69,11.86 1.69,18.8 0,17.13 -3.6,31.68 -10.78,43.64 -5.56,9.37 -13.42,16.87 -23.64,22.45 -11.46,6.33 -22.86,9.53 -34.2,9.53l-83.66 0zm48.85 -40.45l18.81 0c15.21,0 25.77,-7.09 31.67,-21.33 2.07,-4.87 3.08,-10.49 3.08,-16.83 0,-15.05 -3.2,-26.05 -9.54,-32.94 -5.67,-6.34 -14.1,-9.48 -25.21,-9.48l-18.81 0 0 80.58zm0 -119.8l18.81 0c13.98,0 23.36,-6.24 28.07,-18.65 1.74,-4.62 2.64,-10.29 2.64,-17.08 0,-11.31 -3.03,-19.82 -9.04,-25.6 -5.56,-5.32 -12.8,-8 -21.67,-8l-18.81 0 0 69.33z"/>
   <polygon class="fil2" points="59.32,-0.01 109.71,-0.01 109.71,270.93 59.32,270.93 "/>
   <g style="clip-path:url(#id3)">
    <g>
    </g>
    <g style="clip-path:url(#id4)">
     <image x="39.69" y="91.01" width="110.64" height="78.5" xlink:href="favicon_Images\favicon_ImgID2.png"/>
    </g>
    <g style="clip-path:url(#id5)">
    </g>
   </g>
   <polygon class="fil3" points="59.32,-0.01 109.71,-0.01 109.71,270.93 59.32,270.93 "/>
   <rect class="fil4" x="59.32" y="110.63" width="81.39" height="39.25"/>
  </g>
 </g>
</svg>
