<?xml version="1.0" encoding="utf-8"?>
<!-- Generator: Adobe Illustrator 26.3.0, SVG Export Plug-In . SVG Version: 6.00 Build 0)  -->
<svg version="1.1" id="Camada_1" xmlns="http://www.w3.org/2000/svg" xmlns:xlink="http://www.w3.org/1999/xlink" x="0px" y="0px"
	 viewBox="0 0 24 24" style="enable-background:new 0 0 24 24;" xml:space="preserve">
<style type="text/css">
	.st0{fill:#FF0000;}
</style>
<g>
	<path class="st0" d="M16,6V4.5C16,3.1,14.9,2,13.5,2h-3C9.1,2,8,3.1,8,4.5V6H3v2h1.1l0.8,11.2C5,20.8,6.3,22,7.9,22h8.3
		c1.6,0,2.9-1.2,3-2.8L19.9,8H21V6H16z M10,4.5C10,4.2,10.2,4,10.5,4h3C13.8,4,14,4.2,14,4.5V6h-4V4.5z M17.1,19.1
		c0,0.5-0.5,0.9-1,0.9H7.9c-0.5,0-1-0.4-1-0.9L6.1,8h11.9C17.9,8,17.1,19.1,17.1,19.1z M9,17v-6h2v6H9z M13,17v-6h2v6H13z"/>
</g>
</svg>
