<?xml version="1.0" encoding="utf-8"?>
<!-- Generator: Adobe Illustrator 26.3.0, SVG Export Plug-In . SVG Version: 6.00 Build 0)  -->
<svg version="1.1" id="Camada_1" xmlns="http://www.w3.org/2000/svg" xmlns:xlink="http://www.w3.org/1999/xlink" x="0px" y="0px"
	 viewBox="0 0 24 24" style="enable-background:new 0 0 24 24;" xml:space="preserve">
<style type="text/css">
	.st0{fill:#1D9BF0;}
</style>
<g>
	<path class="st0" d="M3,5.5C3,4.1,4.1,3,5.5,3h13C19.9,3,21,4.1,21,5.5v13c0,1.4-1.1,2.5-2.5,2.5h-13C4.1,21,3,19.9,3,18.5V5.5z
		 M5.5,5C5.2,5,5,5.2,5,5.5v9.1l3-3l3,3l5-5l3,3V5.5C19,5.2,18.8,5,18.5,5H5.5z M19,15.4l-3-3l-5,5l-3-3l-3,3v1.1
		C5,18.8,5.2,19,5.5,19h13c0.3,0,0.5-0.2,0.5-0.5V15.4z M9.8,7C8.8,7,8,7.8,8,8.8s0.8,1.8,1.8,1.8s1.8-0.8,1.8-1.8S10.7,7,9.8,7z"/>
</g>
</svg>
