<svg xmlns="http://www.w3.org/2000/svg" viewBox="0 0 20.5 20.5"><defs><style>.cls-1{fill:#1d9bf0;}</style></defs><g id="Camada_2" data-name="Camada 2"><g id="Camada_1-2" data-name="Camada 1"><path class="cls-1" d="M20.5,10.25a3.8,3.8,0,0,0-2.19-3.34A3.79,3.79,0,0,0,17.5,3a3.79,3.79,0,0,0-3.91-.81A3.79,3.79,0,0,0,10.25,0,3.77,3.77,0,0,0,6.92,2.19,3.8,3.8,0,0,0,3,3a3.79,3.79,0,0,0-.8,3.91A3.81,3.81,0,0,0,0,10.25a3.81,3.81,0,0,0,2.2,3.34A3.79,3.79,0,0,0,3,17.5a3.81,3.81,0,0,0,3.91.81,3.8,3.8,0,0,0,3.34,2.19,3.79,3.79,0,0,0,3.34-2.19,3.81,3.81,0,0,0,3.91-.81,3.79,3.79,0,0,0,.81-3.91A3.8,3.8,0,0,0,20.5,10.25ZM8.79,14.45,5.05,10.71,6.46,9.29l2.26,2.26,4.8-5.23L15,7.68Z"/></g></g></svg>