<?xml version="1.0" encoding="utf-8"?>
<!-- Generator: Adobe Illustrator 26.3.0, SVG Export Plug-In . SVG Version: 6.00 Build 0)  -->
<svg version="1.1" id="Camada_1" xmlns="http://www.w3.org/2000/svg" xmlns:xlink="http://www.w3.org/1999/xlink" x="0px" y="0px"
	 viewBox="0 0 24 24" style="enable-background:new 0 0 24 24;" xml:space="preserve">
<style type="text/css">
	.st0{fill:#00BA7C;}
</style>
<g>
	<path class="st0" d="M4.5,3.9L8.9,8L7.6,9.5L5.5,7.6V16c0,1.1,0.9,2,2,2H13v2H7.5c-2.2,0-4-1.8-4-4V7.6L1.4,9.5L0.1,8L4.5,3.9z
		 M16.5,6H11V4h5.5c2.2,0,4,1.8,4,4v8.5l2.1-1.9l1.4,1.5l-4.4,4.1L15.1,16l1.4-1.5l2.1,1.9V8C18.5,6.9,17.6,6,16.5,6z"/>
</g>
</svg>
