<?xml version="1.0" encoding="utf-8"?>
<!-- Generator: Adobe Illustrator 26.3.0, SVG Export Plug-In . SVG Version: 6.00 Build 0)  -->
<svg version="1.1" id="Camada_1" xmlns="http://www.w3.org/2000/svg" xmlns:xlink="http://www.w3.org/1999/xlink" x="0px" y="0px"
	 viewBox="0 0 24 24" style="enable-background:new 0 0 24 24;" xml:space="preserve">
<style type="text/css">
	.st0{fill:#1D9BF0;}
</style>
<g>
	<path class="st0" d="M6,5C4.9,5,4,5.9,4,7s0.9,2,2,2s2-0.9,2-2S7.1,5,6,5z M2,7c0-2.2,1.8-4,4-4s4,1.8,4,4s-1.8,4-4,4S2,9.2,2,7z
		 M22,8H12V6h10V8z M6,15c-1.1,0-2,0.9-2,2s0.9,2,2,2s2-0.9,2-2S7.1,15,6,15z M2,17c0-2.2,1.8-4,4-4s4,1.8,4,4s-1.8,4-4,4
		S2,19.2,2,17z M22,18H12v-2h10V18z M7,7c0,0.6-0.4,1-1,1S5,7.6,5,7s0.4-1,1-1S7,6.4,7,7z"/>
</g>
</svg>
