<?xml version="1.0" encoding="utf-8"?>
<!-- Generator: Adobe Illustrator 26.3.0, SVG Export Plug-In . SVG Version: 6.00 Build 0)  -->
<svg version="1.1" id="Camada_1" xmlns="http://www.w3.org/2000/svg" xmlns:xlink="http://www.w3.org/1999/xlink" x="0px" y="0px"
	 viewBox="0 0 24 24" style="enable-background:new 0 0 24 24;" xml:space="preserve">
<style type="text/css">
	.st0{fill:#1D9BF0;}
</style>
<g>
	<path class="st0" d="M12,7c-1.9,0-3.5,1.6-3.5,3.5S10.1,14,12,14s3.5-1.6,3.5-3.5S13.9,7,12,7z M12,12c-0.8,0-1.5-0.7-1.5-1.5
		S11.2,9,12,9s1.5,0.7,1.5,1.5S12.8,12,12,12z M12,2c-4.7,0-8.5,3.8-8.5,8.5c0,6,7.6,11.1,7.9,11.3l0.6,0.4l0.6-0.4
		c0.3-0.2,7.9-5.4,7.9-11.3C20.5,5.8,16.7,2,12,2z M12,19.8c-1.7-1.2-6.5-5.2-6.5-9.3C5.5,6.9,8.4,4,12,4s6.5,2.9,6.5,6.5
		C18.5,14.6,13.7,18.5,12,19.8z"/>
</g>
</svg>
