<?xml version="1.0" encoding="utf-8"?>
<!-- Generator: Adobe Illustrator 26.3.0, SVG Export Plug-In . SVG Version: 6.00 Build 0)  -->
<svg version="1.1" id="Camada_1" xmlns="http://www.w3.org/2000/svg" xmlns:xlink="http://www.w3.org/1999/xlink" x="0px" y="0px"
	 viewBox="0 0 24 24" style="enable-background:new 0 0 24 24;" xml:space="preserve">
<style type="text/css">
	.st0{fill:#1D9BF0;}
</style>
<g>
	<path class="st0" d="M6,3V2h2v1h6V2h2v1h1.5C18.9,3,20,4.1,20,5.5v2h-2v-2C18,5.2,17.8,5,17.5,5H16v1h-2V5H8v1H6V5H4.5
		C4.2,5,4,5.2,4,5.5v12C4,17.8,4.2,18,4.5,18h3v2h-3C3.1,20,2,18.9,2,17.5v-12C2,4.1,3.1,3,4.5,3H6z M15.5,11C13,11,11,13,11,15.5
		s2,4.5,4.5,4.5s4.5-2,4.5-4.5S18,11,15.5,11z M9,15.5C9,11.9,11.9,9,15.5,9s6.5,2.9,6.5,6.5S19.1,22,15.5,22S9,19.1,9,15.5z
		 M14.5,13h2v2.1l1.7,1.7l-1.4,1.4l-2.3-2.3C14.5,15.9,14.5,13,14.5,13z"/>
</g>
</svg>
