<svg xmlns="http://www.w3.org/2000/svg" viewBox="0 0 22.71 18.45"><defs><style>.cls-1{fill:#1d9bf0;}</style></defs><g id="Camada_2" data-name="Camada 2"><g id="Camada_1-2" data-name="Camada 1"><path class="cls-1" d="M22.71,2.19A9.33,9.33,0,0,1,20,2.92a4.7,4.7,0,0,0,2-2.58,9.46,9.46,0,0,1-3,1.13,4.66,4.66,0,0,0-7.94,4.25A13.21,13.21,0,0,1,1.58.85,4.67,4.67,0,0,0,3,7.07,4.59,4.59,0,0,1,.91,6.49v.06a4.67,4.67,0,0,0,3.74,4.57,4.79,4.79,0,0,1-2.1.08A4.66,4.66,0,0,0,6.9,14.43a9.38,9.38,0,0,1-5.79,2A10.34,10.34,0,0,1,0,16.36a13.19,13.19,0,0,0,7.14,2.09A13.15,13.15,0,0,0,20.39,5.2c0-.2,0-.4,0-.6A9.49,9.49,0,0,0,22.7,2.19Z"/></g></g></svg>