<?xml version="1.0" encoding="utf-8"?>
<!-- Generator: Adobe Illustrator 26.3.0, SVG Export Plug-In . SVG Version: 6.00 Build 0)  -->
<svg version="1.1" id="Camada_1" xmlns="http://www.w3.org/2000/svg" xmlns:xlink="http://www.w3.org/1999/xlink" x="0px" y="0px"
	 viewBox="0 0 24 24" style="enable-background:new 0 0 24 24;" xml:space="preserve">
<style type="text/css">
	.st0{fill:#1D9BF0;}
</style>
<g>
	<path class="st0" d="M1.8,10c0-4.4,3.6-8,8-8h4.4c4.5,0,8.1,3.6,8.1,8.1c0,3-1.6,5.7-4.2,7.1L10,21.7V18H9.9
		C5.4,18.1,1.8,14.5,1.8,10z M9.8,4c-3.3,0-6,2.7-6,6c0,3.4,2.8,6.1,6.1,6l0.4,0H12v2.3l5.1-2.8c2-1.1,3.2-3.1,3.2-5.4
		c0-3.4-2.7-6.1-6.1-6.1C14.1,4,9.8,4,9.8,4z"/>
</g>
</svg>
